<?xml version="1.0" encoding="UTF-8"?>
<!-- Created with Inkscape (http://www.inkscape.org/) -->
<svg width="32" height="32" inkscape:version="1.2 (dc2aedaf03, 2022-05-15)" sodipodi:docname="PongIcon.svg" version="1.1" viewBox="0 0 32 32" xml:space="preserve" xmlns="http://www.w3.org/2000/svg" xmlns:inkscape="http://www.inkscape.org/namespaces/inkscape" xmlns:sodipodi="http://sodipodi.sourceforge.net/DTD/sodipodi-0.dtd" xmlns:xlink="http://www.w3.org/1999/xlink"><sodipodi:namedview bordercolor="#000000" borderlayer="false" borderopacity="1" inkscape:current-layer="layer1" inkscape:cx="-36.5" inkscape:cy="33.5" inkscape:deskcolor="#3d3d3d" inkscape:document-units="px" inkscape:pagecheckerboard="1" inkscape:pageopacity="0" inkscape:showpageshadow="false" inkscape:zoom="1" pagecolor="#525252" showgrid="false"/><defs><linearGradient id="linearGradient10556" x1="232.97" x2="211.77" y1="-186.68" y2="-205.01" gradientTransform="matrix(.32365 0 0 .32365 -63.209 73.145)" gradientUnits="userSpaceOnUse" inkscape:collect="always"><stop stop-color="#95ea1c" offset="0"/><stop stop-color="#32c0ea" offset="1"/></linearGradient><linearGradient id="linearGradient10564" x1="263.18" x2="284.66" y1="-155.35" y2="-130.12" gradientTransform="matrix(.32365 0 0 .32365 -63.209 73.145)" gradientUnits="userSpaceOnUse" inkscape:collect="always"><stop stop-color="#fdbe11" offset="0"/><stop stop-color="#ef175e" offset="1"/></linearGradient></defs><g stroke-linejoin="round" inkscape:groupmode="layer" inkscape:label="Layer 1"><path d="m16 2.2741c-7.5808-1.1797e-4 -13.726 6.1454-13.726 13.726 2.3115e-4 7.5806 6.1456 13.726 13.726 13.726 7.5803-2.3114e-4 13.725-6.1453 13.726-13.726 1.1797e-4 -7.5806-6.145-13.726-13.726-13.726z" stroke="#000" stroke-width="3.7" sodipodi:nodetypes="ccccc"/><circle cx="16.244" cy="15.756" r="12.683" fill="#1f1c21" stroke="#9575a3" stroke-width="1.9419"/><circle cx="15.848" cy="12.722" r="4.2075" fill="#32c0ea" stroke="#000" stroke-width="1.9419"/><path d="m12.542 1.9419c-6.2449 1.6733-10.6 7.3495-10.6 13.815h3.2365c0-5.016 3.3563-9.3899 8.2013-10.688z" color="#000000" stroke="#000" stroke-width="3.8838"/><path d="m12.542 1.9419c-6.2449 1.6733-10.6 7.3495-10.6 13.815h3.2365c0-5.016 3.3563-9.3899 8.2013-10.688z" color="#000000" fill="url(#linearGradient10556)" stroke-width="1.9419"/><path d="m26.932 18.62c-1.2982 4.8451-5.6722 8.2013-10.688 8.2013v3.2365c6.4652 0 12.141-4.3554 13.814-10.6z" color="#000000" stroke="#000" stroke-width="3.8838"/><path d="m26.932 18.62c-1.2982 4.8451-5.6722 8.2013-10.688 8.2013v3.2365c6.4652 0 12.141-4.3554 13.814-10.6z" color="#000000" fill="url(#linearGradient10564)" stroke-width="1.9419"/></g></svg>
