<?xml version="1.0" encoding="UTF-8"?>
<!-- Created with Inkscape (http://www.inkscape.org/) -->
<svg width="836" height="1360" version="1.1" viewBox="0 0 836 1360" xml:space="preserve" xmlns="http://www.w3.org/2000/svg" xmlns:xlink="http://www.w3.org/1999/xlink"><defs><linearGradient id="linearGradient10556" x1="232.97" x2="211.77" y1="-186.68" y2="-205.01" gradientTransform="translate(349.78,247.94)" gradientUnits="userSpaceOnUse" xlink:href="#linearGradient10554"/><linearGradient id="linearGradient10554"><stop stop-color="#95ea1c" offset="0"/><stop stop-color="#32c0ea" offset="1"/></linearGradient><linearGradient id="linearGradient10564" x1="263.18" x2="284.66" y1="-155.35" y2="-130.12" gradientTransform="translate(349.78,247.94)" gradientUnits="userSpaceOnUse" xlink:href="#linearGradient10562"/><linearGradient id="linearGradient10562"><stop stop-color="#fdbe11" offset="0"/><stop stop-color="#ef175e" offset="1"/></linearGradient><linearGradient id="linearGradient57585" x1="1943.5" x2="1978.4" y1="-16.768" y2="-53.464" gradientTransform="translate(-1251.5,840.37)" gradientUnits="userSpaceOnUse" xlink:href="#linearGradient10554"/><linearGradient id="linearGradient72143" x1="1978.9" x2="1968.4" y1="-35.794" y2="-50.243" gradientTransform="translate(-1259.8,944.64)" gradientUnits="userSpaceOnUse" xlink:href="#linearGradient10554"/><linearGradient id="linearGradient72396" x1="1978.4" x2="1960.6" y1="-38.479" y2="-62.054" gradientTransform="translate(-1259.8,944.64)" gradientUnits="userSpaceOnUse" xlink:href="#linearGradient10562"/><linearGradient id="linearGradient83088" x1="1981.5" x2="1964.4" y1="-31.843" y2="-46.101" gradientTransform="translate(-1263.5,1031.3)" gradientUnits="userSpaceOnUse" xlink:href="#linearGradient10554"/><linearGradient id="linearGradient72547" x1="1972.8" x2="1962.8" y1="-44.212" y2="-58.403" gradientTransform="translate(-1259.8,992.64)" gradientUnits="userSpaceOnUse" xlink:href="#linearGradient10562"/><linearGradient id="linearGradient59420" x1="1961.1" x2="1999.8" y1="-35.923" y2="-74.939" gradientTransform="translate(-1250.7,889.11)" gradientUnits="userSpaceOnUse" xlink:href="#linearGradient10562"/><linearGradient id="linearGradient83094" x1="1972.8" x2="1956.1" y1="-39.259" y2="-54.597" gradientTransform="translate(-1263.5,1079.3)" gradientUnits="userSpaceOnUse" xlink:href="#linearGradient10562"/><linearGradient id="linearGradient71193" x1="1299.1" x2="1298.7" y1="-1347.9" y2="-1318.7" gradientTransform="rotate(47.495,-1864.9,-739.11)" gradientUnits="userSpaceOnUse"><stop stop-color="#2e4909" offset="0"/><stop offset="1"/></linearGradient><linearGradient id="linearGradient1822" x1="-157.68" x2="-325.71" y1="-526.3" y2="-433.16" gradientTransform="translate(538.95 690.69)" gradientUnits="userSpaceOnUse" xlink:href="#linearGradient10554"/><linearGradient id="linearGradient1834" x1="39.305" x2="28.491" y1="-481.59" y2="-388.07" gradientTransform="translate(538.95 691.4)" gradientUnits="userSpaceOnUse" xlink:href="#linearGradient10562"/><linearGradient id="linearGradient1894" x1="3562.3" x2="2459.2" y1="28.27" y2="376.39" gradientTransform="translate(-2913.4,383.54)" gradientUnits="userSpaceOnUse" xlink:href="#linearGradient10562"/><linearGradient id="linearGradient1942" x1="-162.8" x2="-325.71" y1="-533.98" y2="-433.16" gradientTransform="translate(465.95,1180.2)" gradientUnits="userSpaceOnUse" xlink:href="#linearGradient10554"/><linearGradient id="linearGradient1964" x1="39.305" x2="9.9311" y1="-481.59" y2="-388.71" gradientTransform="translate(465.95 1180.8)" gradientUnits="userSpaceOnUse" xlink:href="#linearGradient10562"/><linearGradient id="linearGradient1994" x1="4092.3" x2="3006.7" y1="-140.48" y2="192.64" gradientTransform="translate(-2925.1,874.12)" gradientUnits="userSpaceOnUse" xlink:href="#linearGradient10554"/><linearGradient id="linearGradient2042" x1="-164.85" x2="-325.71" y1="-534.5" y2="-433.16" gradientTransform="translate(465.95 1670.2)" gradientUnits="userSpaceOnUse" xlink:href="#linearGradient10554"/><linearGradient id="linearGradient2064" x1="45.449" x2="17.227" y1="-482.61" y2="-391.65" gradientTransform="translate(465.95 1670.8)" gradientUnits="userSpaceOnUse" xlink:href="#linearGradient10562"/></defs><g stroke-linejoin="round"><path d="m435 698.2v43.637h11.846v-12.955h6.5625c3.3239 0 6.2291-0.61772 8.7148-1.8535 2.5-1.2358 4.4386-2.9982 5.8164-5.2852 1.392-2.2869 2.0879-4.9922 2.0879-8.1172 0-3.0966-0.67401-5.8018-2.0234-8.1172s-3.239-4.1122-5.668-5.3906-5.2633-1.918-8.502-1.918zm39.375 0v43.637h29.488v-9.5469h-17.643v-34.09zm47.215 0-14.404 43.637h12.785l2.5137-8.3535h14.404l2.5137 8.3535h12.783l-14.402-43.637zm28.551 0 16.023 29.914v13.723h11.762v-13.723l16.021-29.914h-13.209l-8.5234 17.727h-0.3418l-8.5215-17.727zm-103.29 9.4609h4.1758c2.0739 0 3.6999 0.52504 4.8789 1.5762 1.179 1.0511 1.7695 2.5137 1.7695 4.3887 0 1.8608-0.59056 3.3379-1.7695 4.4316-1.179 1.0795-2.805 1.6191-4.8789 1.6191h-4.1758zm82.67 2.5566h0.3418l4.3457 14.402h-9.0332zm3.166 42.07v49.354h49.354v-49.354zm-3.7285 58.082c-1.0076 0-1.9076 0.23964-2.6992 0.7207-0.78787 0.47728 0.63946 4.747-1.8633 2.0566-0.45454 0.89015-0.68164 1.9568-0.68164 3.1992 0 1.2386 0.2271 2.3053 0.68164 3.1992s1.0754 1.5814 1.8633 2.0625c0.79167 0.47727 1.6916 0.71484 2.6992 0.71484 1.0038 0 1.8996-0.23757 2.6875-0.71484 0.79167-0.48106 1.4146-1.1686 1.8691-2.0625s0.68164-1.9606 0.68164-3.1992c0-1.2424-0.2271-2.3091-0.68164-3.1992-0.45454-0.89394-1.0775-1.5794-1.8691-2.0566-0.78788-0.48106-1.6837-0.7207-2.6875-0.7207zm7.4199 0.1582v11.637h1.7559v-4.4043h2.5l2.3633 4.4043h2l-2.5781-4.7109c0.71591-0.26515 1.2493-0.68182 1.6016-1.25 0.35606-0.57197 0.5332-1.247 0.5332-2.0273 0-0.71591-0.14802-1.3471-0.44727-1.8926-0.29545-0.54924-0.74124-0.97846-1.3359-1.2891-0.5947-0.31061-1.3426-0.4668-2.2441-0.4668zm17.178 4.0312v37.818h37.818v-37.818z" stroke="#000" stroke-width="30"/><path d="m435 698.2v43.637h11.846v-12.955h6.5625c3.3239 0 6.2291-0.61772 8.7148-1.8535 2.5-1.2358 4.4386-2.9982 5.8164-5.2852 1.392-2.2869 2.0898-4.9922 2.0898-8.1172 0-3.0966-0.67596-5.8018-2.0254-8.1172-1.3494-2.3153-3.239-4.1122-5.668-5.3906s-5.2614-1.918-8.5-1.918h-18.836zm39.375 0v43.637h29.488v-9.5469h-17.643v-34.09h-11.846zm47.217 0-14.404 43.637h12.783l2.5156-8.3535h14.402l2.5156 8.3535h12.783l-14.404-43.637h-16.191zm28.551 0 16.021 29.914v13.723h11.762v-13.723l16.023-29.914h-13.211l-8.5215 17.727h-0.3418l-8.5234-17.727h-13.209zm-103.3 9.4609h4.1777c2.0739 0 3.6999 0.52504 4.8789 1.5762 1.179 1.0511 1.7676 2.5137 1.7676 4.3887 0 1.8608-0.5886 3.3379-1.7676 4.4316-1.179 1.0795-2.805 1.6191-4.8789 1.6191h-4.1777v-12.016zm82.672 2.5566h0.33984l4.3477 14.402h-9.0352l4.3477-14.402z" fill="url(#linearGradient1964)" stroke-width="6"/><rect transform="scale(-1)" x="-591.37" y="-852.37" width="37.819" height="37.819" fill="#302e33" stroke="#474649" stroke-width="5.1571"/><path d="m560.34 831.52h21.892q-0.077357-0.10314-0.1805-0.1805-0.077357-0.10314-0.15471-0.23207l-4.332-5.6986h3.7905l5.8018 7.6068-5.8276 7.6068h-3.7647l4.4094-5.7244q0.077357-0.12893 0.15471-0.20629 0.077357-0.10314 0.15471-0.20629h-21.944z" fill="#fefaec" stroke-width="5.1571"/><rect transform="scale(-1)" x="-582.04" y="-801.64" width="49.353" height="49.353" fill="#302e33" stroke="#474649" stroke-width="6.73"/><path d="m534.19 816.34q0 1.858-0.68182 3.1989t-1.8693 2.0625q-1.1818 0.71591-2.6875 0.71591-1.5114 0-2.6989-0.71591-1.1818-0.72159-1.8636-2.0625t-0.68182-3.1989q0-1.8636 0.68182-3.1989 0.68182-1.3409 1.8636-2.0568 1.1875-0.72159 2.6989-0.72159 1.5057 0 2.6875 0.72159 1.1875 0.71591 1.8693 2.0568 0.68182 1.3352 0.68182 3.1989zm-1.7386 0q0-1.4205-0.46023-2.392-0.45455-0.97727-1.25-1.4773-0.78977-0.50568-1.7898-0.50568t-1.7955 0.50568q-0.78977 0.5-1.25 1.4773-0.45455 0.97159-0.45455 2.392 0 1.4148 0.45455 2.392 0.46023 0.97727 1.25 1.483 0.79545 0.5 1.7955 0.5t1.7898-0.5q0.79545-0.50568 1.25-1.483 0.46023-0.97727 0.46023-2.392z" fill="#a38e75" stroke-width="12"/><path d="m536.37 822.16v-11.636h4.1477q1.3523 0 2.2443 0.46591 0.89205 0.46591 1.3352 1.2898 0.44886 0.81818 0.44886 1.892 0 1.1705-0.53409 2.0284-0.52841 0.85227-1.6023 1.25l2.5795 4.7102h-2l-2.3636-4.4034q-0.056818 0-0.11364 0h-2.3864v4.4034zm1.7557-5.9148h2.2273q1.2841 0 1.8523-0.54545 0.57386-0.54545 0.57386-1.5284 0-0.98864-0.57386-1.5625-0.57386-0.57955-1.875-0.57955h-2.2045z" fill="#a38e75" stroke-width="12"/><path d="m435 1188.2v43.637h11.846v-12.955h6.5625c3.3239 0 6.2291-0.61772 8.7148-1.8535 2.5-1.2358 4.4386-2.9982 5.8164-5.2852 1.392-2.2869 2.0879-4.9922 2.0879-8.1172 0-3.0966-0.67401-5.8018-2.0234-8.1172-1.3494-2.3153-3.239-4.1122-5.668-5.3906s-5.2633-1.918-8.502-1.918zm39.375 0v43.637h29.488v-9.5469h-17.643v-34.09zm47.215 0-14.404 43.637h12.785l2.5137-8.3535h14.404l2.5137 8.3535h12.783l-14.402-43.637zm28.551 0 16.023 29.914v13.723h11.762v-13.723l16.021-29.914h-13.209l-8.5234 17.727h-0.3418l-8.5215-17.727zm-103.29 9.4609h4.1758c2.0739 0 3.6999 0.52504 4.8789 1.5762 1.179 1.0511 1.7695 2.5137 1.7695 4.3887 0 1.8608-0.59056 3.3379-1.7695 4.4316-1.179 1.0795-2.805 1.6191-4.8789 1.6191h-4.1758zm82.67 2.5566h0.3418l4.3457 14.402h-9.0332zm3.166 42.07v49.354h49.354v-49.354zm-3.7285 58.082c-1.0076 0-1.9076 0.23964-2.6992 0.7207-0.78787 0.47728 0.63946 4.747-1.8633 2.0566-0.45454 0.89015-0.68164 1.9568-0.68164 3.1992 0 1.2386 0.2271 2.3053 0.68164 3.1992s1.0754 1.5814 1.8633 2.0625c0.79167 0.47727 1.6916 0.71484 2.6992 0.71484 1.0038 0 1.8996-0.23757 2.6875-0.71484 0.79167-0.48106 1.4146-1.1686 1.8691-2.0625s0.68164-1.9606 0.68164-3.1992c0-1.2424-0.2271-2.3091-0.68164-3.1992-0.45454-0.89394-1.0775-1.5794-1.8691-2.0566-0.78788-0.48106-1.6837-0.7207-2.6875-0.7207zm7.4199 0.1582v11.637h1.7559v-4.4043h2.5l2.3633 4.4043h2l-2.5781-4.7109c0.71591-0.26515 1.2493-0.68182 1.6016-1.25 0.35606-0.57197 0.5332-1.247 0.5332-2.0273 0-0.71591-0.14802-1.3471-0.44727-1.8926-0.29545-0.54924-0.74124-0.97846-1.3359-1.2891-0.5947-0.31061-1.3426-0.4668-2.2441-0.4668zm17.178 4.0312v37.818h37.818v-37.818z" stroke="#000" stroke-width="30"/><path d="m435 1188.2v43.635h11.846v-12.953h6.5625c3.3239 0 6.2291-0.61772 8.7148-1.8535 2.5-1.2358 4.4386-2.9982 5.8164-5.2852 1.392-2.2869 2.0879-4.9922 2.0879-8.1172 0-3.0966-0.67401-5.8038-2.0234-8.1191-1.3494-2.3153-3.239-4.1122-5.668-5.3906s-5.2614-1.916-8.5-1.916h-18.836zm39.375 0v43.635h29.488v-9.5449h-17.643v-34.09h-11.846zm47.215 0-14.402 43.635h12.783l2.5156-8.3516h14.402l2.5137 8.3516h12.785l-14.404-43.635h-16.193zm28.553 0 16.021 29.914v13.721h11.762v-13.721l16.023-29.914h-13.211l-8.5234 17.727h-0.33984l-8.5234-17.727h-13.209zm-103.3 9.459h4.1777c2.0739 0 3.6999 0.52699 4.8789 1.5781 1.179 1.0511 1.7676 2.5137 1.7676 4.3887 0 1.8608-0.5886 3.3379-1.7676 4.4316-1.179 1.0795-2.805 1.6191-4.8789 1.6191h-4.1777v-12.018zm82.672 2.5566h0.33984l4.3477 14.404h-9.0352l4.3477-14.404z" fill="url(#linearGradient2064)" stroke-width="6"/><rect transform="scale(-1)" x="-591.37" y="-1342.4" width="37.819" height="37.819" fill="#302e33" stroke="#474649" stroke-width="5.1571"/><path d="m560.34 1321.5h21.892q-0.077357-0.10314-0.1805-0.1805-0.077357-0.10314-0.15471-0.23207l-4.332-5.6986h3.7905l5.8018 7.6068-5.8276 7.6068h-3.7647l4.4094-5.7244q0.077357-0.12893 0.15471-0.20629 0.077357-0.10314 0.15471-0.20629h-21.944z" fill="#fefaec" stroke-width="5.1571"/><rect transform="scale(-1)" x="-582.04" y="-1291.6" width="49.353" height="49.353" fill="#302e33" stroke="#474649" stroke-width="6.73"/><path d="m534.19 1306.3q0 1.858-0.68182 3.1989t-1.8693 2.0625q-1.1818 0.71591-2.6875 0.71591-1.5114 0-2.6989-0.71591-1.1818-0.72159-1.8636-2.0625t-0.68182-3.1989q0-1.8636 0.68182-3.1989 0.68182-1.3409 1.8636-2.0568 1.1875-0.72159 2.6989-0.72159 1.5057 0 2.6875 0.72159 1.1875 0.71591 1.8693 2.0568 0.68182 1.3352 0.68182 3.1989zm-1.7386 0q0-1.4205-0.46023-2.392-0.45455-0.97727-1.25-1.4773-0.78977-0.50568-1.7898-0.50568t-1.7955 0.50568q-0.78977 0.5-1.25 1.4773-0.45455 0.97159-0.45455 2.392 0 1.4148 0.45455 2.392 0.46023 0.97727 1.25 1.483 0.79545 0.5 1.7955 0.5t1.7898-0.5q0.79545-0.50568 1.25-1.483 0.46023-0.97727 0.46023-2.392z" fill="#a38e75" stroke-width="12"/><path d="m536.37 1312.1v-11.636h4.1477q1.3523 0 2.2443 0.46591 0.89205 0.46591 1.3352 1.2898 0.44886 0.81818 0.44886 1.892 0 1.1705-0.53409 2.0284-0.52841 0.85227-1.6023 1.25l2.5795 4.7102h-2l-2.3636-4.4034q-0.056818 0-0.11364 0h-2.3864v4.4034zm1.7557-5.9148h2.2273q1.2841 0 1.8523-0.54545 0.57386-0.54545 0.57386-1.5284 0-0.98864-0.57386-1.5625-0.57386-0.57955-1.875-0.57955h-2.2045z" fill="#a38e75" stroke-width="12"/></g><g stroke="#000" stroke-linejoin="round"><path d="m203.74 208.06c-3.9773 0-7.571 0.85938-10.781 2.5781-3.196 1.7045-5.7397 4.2264-7.6289 7.5645-1.875 3.3239-2.8125 7.4135-2.8125 12.271 0 4.8295 0.9375 8.9139 2.8125 12.252 1.8892 3.3239 4.4329 5.853 7.6289 7.5859 3.2102 1.7187 6.804 2.5781 10.781 2.5781 2.6847 0 5.1992-0.39063 7.543-1.1719l3.2812 3.8125h10.482l-6.627-8.0098c2.017-1.9034 3.6087-4.2763 4.7734-7.1172 1.179-2.8551 1.7676-6.1655 1.7676-9.9297 0-4.8579-0.94478-8.9476-2.834-12.271-1.8892-3.3381-4.4382-5.8599-7.6484-7.5645-3.2102-1.7187-6.7894-2.5781-10.738-2.5781zm26.762 0.5957v27.955c0 3.3239 0.78125 6.1999 2.3438 8.6289 1.5767 2.4148 3.7768 4.2825 6.6035 5.6035 2.8267 1.3068 6.1225 1.9609 9.8867 1.9609 3.7358 0 7.017-0.65412 9.8438-1.9609 2.8267-1.321 5.0288-3.1887 6.6055-5.6035 1.5909-2.429 2.3867-5.305 2.3867-8.6289v-27.955h-11.848v26.932c0 2.0312-0.65945 3.7083-1.9805 5.0293-1.3068 1.3068-2.9766 1.9609-5.0078 1.9609s-3.7063-0.65412-5.0273-1.9609c-1.3068-1.321-1.9609-2.998-1.9609-5.0293v-26.932zm43.295 0v43.637h11.846v-43.637zm16.277 0v9.5469h13.125v34.09h11.676v-34.09h13.125v-9.5469zm-86.334 9.7168c2.9403 0 5.1768 1.0375 6.7109 3.1113 1.5483 2.0739 2.3223 5.0698 2.3223 8.9902 0 3.5085-0.61772 6.2866-1.8535 8.332l-2.1523-2.707h-9.2031l4.8789 6.457c-0.22727 0.014205-0.46165 0.021484-0.70312 0.021484-2.9403 0-5.1861-1.0375-6.7344-3.1113-1.5341-2.0739-2.3008-5.0717-2.3008-8.9922s0.76669-6.9164 2.3008-8.9902c1.5483-2.0739 3.794-3.1113 6.7344-3.1113zm62.729 44.373v49.354h49.354v-49.354zm-2.5488 58.08c-1.0076 0-1.9076 0.23964-2.6992 0.7207-0.78788 0.47727-1.4087 1.1647-1.8633 2.0586-0.45454 0.89015-0.68164 1.9548-0.68164 3.1973 0 1.2386 0.2271 2.3053 0.68164 3.1992s1.0754 1.5814 1.8633 2.0625c0.79167 0.47727 1.6916 0.7168 2.6992 0.7168 1.0038 0 1.8996-0.23952 2.6875-0.7168 0.79167-0.48106 1.4146-1.1686 1.8691-2.0625s0.68164-1.9606 0.68164-3.1992c0-1.2424-0.2271-2.3071-0.68164-3.1973-0.45454-0.89394-1.0775-1.5813-1.8691-2.0586-0.78788-0.48106-1.6837-0.7207-2.6875-0.7207zm7.4199 0.1582v11.637h1.7559v-4.4023h2.5l2.3633 4.4023h2l-2.5801-4.709c0.71591-0.26515 1.2512-0.68182 1.6035-1.25 0.35606-0.57197 0.5332-1.249 0.5332-2.0293 0-0.71591-0.14998-1.3471-0.44922-1.8926-0.29545-0.54924-0.73929-0.97846-1.334-1.2891s-1.3426-0.4668-2.2441-0.4668zm16.264 4.0312v37.82h37.818v-37.82z" stroke-width="20"/><path d="m508 208.77v43.637h11.846v-12.955h6.5625c3.3239 0 6.2291-0.61772 8.7148-1.8535 2.5-1.2358 4.4386-2.9982 5.8164-5.2852 1.392-2.2869 2.0879-4.9922 2.0879-8.1172 0-3.0966-0.67401-5.8018-2.0234-8.1172s-3.239-4.1122-5.668-5.3906-5.2633-1.918-8.502-1.918zm39.375 0v43.637h29.488v-9.5469h-17.643v-34.09zm47.215 0-14.404 43.637h12.785l2.5137-8.3535h14.404l2.5137 8.3535h12.783l-14.402-43.637zm28.551 0 16.023 29.914v13.723h11.762v-13.723l16.021-29.914h-13.209l-8.5234 17.727h-0.3418l-8.5215-17.727zm-103.29 9.4609h4.1758c2.0739 0 3.6999 0.52504 4.8789 1.5762 1.179 1.0511 1.7695 2.5137 1.7695 4.3887 0 1.8608-0.59056 3.3379-1.7695 4.4316-1.179 1.0795-2.805 1.6191-4.8789 1.6191h-4.1758zm82.67 2.5566h0.3418l4.3457 14.402h-9.0332zm3.166 42.07v49.354h49.354v-49.354zm-6.4277 58.803c-0.78787 0.47728 0.63946 4.747-1.8633 2.0566-0.45454 0.89015-0.68164 1.9568-0.68164 3.1992 0 1.2386 0.2271 2.3053 0.68164 3.1992s1.0754 1.5814 1.8633 2.0625c0.79167 0.47727 1.6916 0.71484 2.6992 0.71484 1.0038 0 1.8996-0.23757 2.6875-0.71484 0.79167-0.48106 1.4146-1.1686 1.8691-2.0625 2.4782-4.8111-2.0016-11.57-7.2559-8.4551zm10.119 11.074h1.7559c-0.12522-8.7906 2.7618-3.9163 4.8633 0h2c-4.5583-8.3863-8.1791-19.63-8.6191 0zm17.178-7.6055v37.818h37.818v-37.818z" stroke-width="30"/><path d="m66.915 27.149c-7.591 0-14.468 1.6623-20.629 4.9902-6.1608 3.3005-11.055 8.1831-14.686 14.646-3.6305 6.4359-5.4473 14.357-5.4473 23.764 0 9.3513 1.7743 17.259 5.3223 23.723 3.5755 6.4634 8.4311 11.358 14.564 14.686 6.1608 3.328 13.119 4.9922 20.875 4.9922 6.1883 0 11.619-0.94794 16.295-2.8457 4.6756-1.8978 8.5949-4.4018 11.758-7.5098 3.1904-3.1354 5.652-6.545 7.3848-10.23 1.7327-3.713 2.7367-7.3581 3.0117-10.934l-23.268-0.16406c-0.57758 3.603-2.1183 6.4623-4.6211 8.5801-2.5028 2.0903-5.8583 3.1367-10.066 3.1367-5.5833 0-9.9292-1.9674-13.037-5.9004-3.0804-3.933-4.6191-9.7771-4.6191-17.533 0-7.3435 1.5252-13.078 4.5781-17.203 3.0529-4.1531 7.4684-6.2305 13.244-6.2305 4.4281 0 7.8647 1.1835 10.312 3.5488 2.4753 2.3653 3.8789 5.4717 4.209 9.3223h23.268c-0.60508-6.986-2.613-12.927-6.0234-17.822-3.383-4.8957-7.866-8.6218-13.449-11.18-5.5558-2.5578-11.881-3.8359-18.977-3.8359zm200.67 0c-7.591 0-14.468 1.6623-20.629 4.9902-6.1608 3.3005-11.057 8.1831-14.688 14.646-3.6305 6.4359-5.4453 14.357-5.4453 23.764 0 9.3513 1.7743 17.259 5.3223 23.723 3.5755 6.4634 8.4292 11.358 14.562 14.686 6.1608 3.328 13.121 4.9922 20.877 4.9922 6.1883 0 11.619-0.94794 16.295-2.8457s8.5949-4.4018 11.758-7.5098c3.1904-3.1354 5.652-6.545 7.3848-10.23 1.7327-3.713 2.7367-7.3581 3.0117-10.934l-23.268-0.16406c-0.57758 3.603-2.1183 6.4623-4.6211 8.5801-2.5028 2.0903-5.8583 3.1367-10.066 3.1367-5.5833 0-9.9292-1.9674-13.037-5.9004-3.0804-3.933-4.6211-9.7771-4.6211-17.533 0-7.3435 1.5272-13.078 4.5801-17.203 3.0529-4.1531 7.4664-6.2305 13.242-6.2305 4.4281 0 7.8666 1.1835 10.314 3.5488 2.4753 2.3653 3.8789 5.4717 4.209 9.3223h23.268c-0.60508-6.986-2.613-12.927-6.0234-17.822-3.383-4.8957-7.866-8.6218-13.449-11.18-5.5558-2.5578-11.881-3.8359-18.977-3.8359zm504.14 0c-7.591 0-14.507 1.6913-20.75 5.0742s-11.223 8.3197-14.936 14.811-5.5684 14.383-5.5684 23.68c0 8.9112 1.7318 16.599 5.1973 23.062 3.493 6.4634 8.3467 11.443 14.562 14.936s13.437 5.2383 21.66 5.2383c7.371 0 13.902-1.4441 19.596-4.332 5.7208-2.9154 10.204-7.0953 13.449-12.541 3.2729-5.4732 4.9102-12.061 4.9102-19.762v-11.717h-37.461v16.338h15.348c-0.11002 3.6855-1.4711 6.6143-4.084 8.7871-2.5854 2.1728-6.4505 3.2598-11.594 3.2598-5.9408 0-10.424-2.0774-13.449-6.2305s-4.5371-9.9431-4.5371-17.369c0-7.316 1.5812-13.023 4.7441-17.121s7.6324-6.1465 13.408-6.1465c3.603 0 6.5743 0.79736 8.9121 2.3926 2.3378 1.5677 3.8495 3.7957 4.5371 6.6836h23.186c-0.57758-5.6658-2.5584-10.672-5.9414-15.018-3.3555-4.3731-7.7284-7.7961-13.119-10.271-5.3907-2.5028-11.414-3.7539-18.07-3.7539zm-176.46 1.0684a42.409 42.409 0 0 0-42.41 42.41 42.409 42.409 0 0 0 42.41 42.408 42.409 42.409 0 0 0 42.408-42.408 42.409 42.409 0 0 0-42.408-42.41zm-479.5 0.085938v84.492h22.939v-84.492zm33.83 0v84.492h22.938v-27.889h7.9219l14.852 27.889h24.918l-17.162-31.52c4.4831-2.1728 7.9911-5.2947 10.521-9.3652 2.5578-4.0706 3.8359-9.0343 3.8359-14.893 0-5.9958-1.3071-11.139-3.9199-15.43s-6.2695-7.5785-10.973-9.8613-10.19-3.4238-16.461-3.4238zm166.84 0v84.492h57.098v-18.482h-34.16v-66.01zm66.34 0v84.492h60.727v-18.482h-37.789v-14.523h34.82v-18.482h-34.82v-14.521h37.955v-18.482zm95.383 0v84.492h22.938v-25.084h12.707c6.4359 0 12.06-1.197 16.873-3.5898 4.8407-2.3928 8.5958-5.8024 11.264-10.23 2.6954-4.4281 4.043-9.6679 4.043-15.719 0-5.9958-1.3071-11.236-3.9199-15.719s-6.2695-7.9622-10.973-10.438-10.192-3.7129-16.463-3.7129zm168.65 0v84.492h22.939v-44.391h0.49414l30.529 44.391h19.143v-84.492h-22.938v44.227h-0.66016l-30.035-44.227zm-474.28 18.318h8.0859c4.0155 0 7.1664 0.82438 9.4492 2.4746s3.4238 4.2914 3.4238 7.9219c0 3.603-1.141 6.1881-3.4238 7.7559-2.2828 1.5402-5.4337 2.3105-9.4492 2.3105h-8.0859zm328.56 0h8.0859c4.0155 0 7.1645 1.0175 9.4473 3.0527s3.4258 4.8676 3.4258 8.498c0 3.603-1.143 6.4642-3.4258 8.582-2.2828 2.0903-5.4317 3.1348-9.4473 3.1348h-8.0859z" stroke-width="50"/></g><g stroke-linejoin="round"><g stroke-width="6"><path d="m66.914 27.148c-7.591 0-14.466 1.6642-20.627 4.9922-6.1608 3.3005-11.057 8.1831-14.688 14.646-3.6305 6.4359-5.4453 14.355-5.4453 23.762 0 9.3513 1.7743 17.259 5.3223 23.723 3.5755 6.4634 8.4292 11.36 14.562 14.688 6.1608 3.328 13.119 4.9922 20.875 4.9922 6.1883 0 11.621-0.9499 16.297-2.8477 4.6756-1.8978 8.5949-4.3999 11.758-7.5078 3.1904-3.1354 5.652-6.5469 7.3848-10.232 1.7327-3.713 2.7367-7.3562 3.0117-10.932l-23.27-0.16602c-0.57758 3.603-2.1163 6.4642-4.6191 8.582-2.5028 2.0903-5.8583 3.1348-10.066 3.1348-5.5833 0-9.9292-1.9654-13.037-5.8984-3.0804-3.933-4.6211-9.7791-4.6211-17.535 0-7.3435 1.5272-13.078 4.5801-17.203 3.0529-4.1531 7.4664-6.2285 13.242-6.2285 4.4281 0 7.8666 1.1816 10.314 3.5469 2.4753 2.3653 3.877 5.4737 4.207 9.3242h23.27c-0.60508-6.986-2.613-12.927-6.0234-17.822-3.383-4.8957-7.866-8.6218-13.449-11.18-5.5558-2.5578-11.883-3.8379-18.979-3.8379zm200.67 0c-7.591 0-14.466 1.6642-20.627 4.9922-6.1608 3.3005-11.057 8.1831-14.688 14.646-3.6305 6.4359-5.4453 14.355-5.4453 23.762 0 9.3513 1.7723 17.259 5.3203 23.723 3.5755 6.4634 8.4311 11.36 14.564 14.688 6.1608 3.328 13.119 4.9922 20.875 4.9922 6.1883 0 11.621-0.9499 16.297-2.8477s8.5949-4.3999 11.758-7.5078c3.1904-3.1354 5.652-6.5469 7.3848-10.232 1.7327-3.713 2.7367-7.3562 3.0117-10.932l-23.27-0.16602c-0.57758 3.603-2.1183 6.4642-4.6211 8.582-2.5028 2.0903-5.8583 3.1348-10.066 3.1348-5.5833 0-9.9272-1.9654-13.035-5.8984-3.0804-3.933-4.6211-9.7791-4.6211-17.535 0-7.3435 1.5272-13.078 4.5801-17.203 3.0529-4.1531 7.4664-6.2285 13.242-6.2285 4.4281 0 7.8666 1.1816 10.314 3.5469 2.4753 2.3653 3.877 5.4737 4.207 9.3242h23.27c-0.60508-6.986-2.613-12.927-6.0234-17.822-3.383-4.8957-7.866-8.6218-13.449-11.18-5.5558-2.5578-11.883-3.8379-18.979-3.8379zm504.14 0c-7.591 0-14.509 1.6913-20.752 5.0742-6.2434 3.383-11.221 8.3197-14.934 14.811s-5.5703 14.385-5.5703 23.682c0 8.9112 1.7337 16.599 5.1992 23.062 3.493 6.4634 8.3467 11.441 14.562 14.934s13.435 5.2402 21.658 5.2402c7.371 0 13.904-1.4441 19.598-4.332 5.7208-2.9154 10.204-7.0972 13.449-12.543 3.2729-5.4732 4.9102-12.059 4.9102-19.76v-11.717h-37.461v16.336h15.348c-0.11002 3.6855-1.4711 6.6163-4.084 8.7891-2.5854 2.1728-6.4505 3.2578-11.594 3.2578-5.9408 0-10.424-2.0754-13.449-6.2285-3.0254-4.1531-4.5391-9.9431-4.5391-17.369 0-7.316 1.5832-13.023 4.7461-17.121s7.6305-6.1465 13.406-6.1465c3.603 0 6.5743 0.79736 8.9121 2.3926 2.3378 1.5677 3.8515 3.7957 4.5391 6.6836h23.186c-0.57758-5.6658-2.5584-10.672-5.9414-15.018-3.3555-4.3731-7.7284-7.7981-13.119-10.273-5.3907-2.5028-11.414-3.7539-18.07-3.7539zm-655.96 1.1562v84.49h22.938v-84.49zm33.828 0v84.49h22.939v-27.889h7.9199l14.854 27.889h24.918l-17.162-31.52c4.4831-2.1728 7.9892-5.2947 10.52-9.3652 2.5578-4.0706 3.8379-9.0343 3.8379-14.893 0-5.9958-1.3071-11.139-3.9199-15.43s-6.2715-7.5766-10.975-9.8594c-4.7031-2.2828-10.19-3.4238-16.461-3.4238h-36.471zm166.84 0v84.49h57.1v-18.482h-34.16v-66.008h-22.939zm66.34 0v84.49h60.729v-18.482h-37.791v-14.521h34.82v-18.482h-34.82v-14.521h37.955v-18.482h-60.893zm95.383 0v84.49h22.939v-25.082h12.707c6.4359 0 12.06-1.197 16.873-3.5898 4.8407-2.3928 8.5939-5.8043 11.262-10.232 2.6954-4.4281 4.043-9.666 4.043-15.717 0-5.9958-1.3051-11.236-3.918-15.719s-6.2715-7.9622-10.975-10.438c-4.7031-2.4753-10.19-3.7129-16.461-3.7129h-36.471zm168.65 0v84.49h22.938v-44.391h0.49609l30.529 44.391h19.143v-84.49h-22.939v44.225h-0.66016l-30.033-44.225h-19.473zm-474.28 18.316h8.0859c4.0155 0 7.1645 0.82438 9.4473 2.4746s3.4238 4.2914 3.4238 7.9219c0 3.603-1.141 6.1881-3.4238 7.7559-2.2828 1.5402-5.4317 2.3105-9.4473 2.3105h-8.0859v-20.463zm328.56 0h8.0859c4.0155 0 7.1645 1.0175 9.4473 3.0527s3.4238 4.8695 3.4238 8.5c0 3.603-1.141 6.4623-3.4238 8.5801-2.2828 2.0903-5.4317 3.1348-9.4473 3.1348h-8.0859v-23.268z" fill="#fefaec"/><circle cx="595.26" cy="70.627" r="39.188" fill="#0f0e10" stroke="#9575a3"/><circle cx="594.04" cy="61.253" r="13" fill="#32c0ea" stroke="#000"/></g><path d="m583.83 27.944c-19.295 5.1701-32.752 22.708-32.752 42.684h10c0-15.498 10.37-29.012 25.34-33.023z" color="#000000" stroke="#000" stroke-width="12"/><path d="m583.83 27.944c-19.295 5.1701-32.752 22.708-32.752 42.684h10c0-15.498 10.37-29.012 25.34-33.023z" color="#000000" fill="url(#linearGradient10556)" stroke-width="6"/><path d="m628.29 79.476c-4.0112 14.97-17.525 25.34-33.023 25.34v10c19.976 0 37.512-13.457 42.682-32.752z" color="#000000" stroke="#000" stroke-width="12"/><path d="m628.29 79.476c-4.0112 14.97-17.525 25.34-33.023 25.34v10c19.976 0 37.512-13.457 42.682-32.752z" color="#000000" fill="url(#linearGradient10564)" stroke-width="6"/><path d="m203.74 208.06c-3.9773 0-7.571 0.85938-10.781 2.5781-3.196 1.7045-5.7378 4.2264-7.627 7.5645-1.875 3.3239-2.8125 7.4155-2.8125 12.273 0 4.8295 0.9375 8.9139 2.8125 12.252 1.8892 3.3239 4.4309 5.851 7.627 7.584 3.2102 1.7187 6.804 2.5781 10.781 2.5781 2.6847 0 5.1992-0.39063 7.543-1.1719l3.2812 3.8145h10.482l-6.625-8.0117c2.017-1.9034 3.6067-4.2763 4.7715-7.1172 1.179-2.8551 1.7695-6.1635 1.7695-9.9277 0-4.8579-0.94478-8.9496-2.834-12.273-1.8892-3.3381-4.4402-5.8599-7.6504-7.5645-3.2102-1.7187-6.7894-2.5781-10.738-2.5781zm26.762 0.59766v27.955c0 3.3239 0.78125 6.1999 2.3438 8.6289 1.5767 2.4148 3.7788 4.2825 6.6055 5.6035 2.8267 1.3068 6.1225 1.9609 9.8867 1.9609 3.7358 0 7.017-0.65412 9.8438-1.9609 2.8267-1.321 5.0268-3.1887 6.6035-5.6035 1.5909-2.429 2.3867-5.305 2.3867-8.6289v-27.955h-11.846v26.932c0 2.0312-0.6614 3.7083-1.9824 5.0293-1.3068 1.3068-2.9746 1.959-5.0059 1.959s-3.7083-0.65217-5.0293-1.959c-1.3068-1.321-1.9609-2.998-1.9609-5.0293v-26.932h-11.846zm43.295 0v43.637h11.848v-43.637zm16.279 0v9.5449h13.125v34.092h11.676v-34.092h13.125v-9.5449zm-86.336 9.7148c2.9403 0 5.1788 1.0375 6.7129 3.1113 1.5483 2.0739 2.3223 5.0717 2.3223 8.9922 0 3.5085-0.61772 6.2846-1.8535 8.3301l-2.1523-2.7051h-9.2051l4.8789 6.4551c-0.22727 0.014205-0.46165 0.021484-0.70312 0.021484-2.9403 0-5.1841-1.0375-6.7324-3.1113-1.5341-2.0739-2.3008-5.0698-2.3008-8.9902 0-3.9205 0.76669-6.9183 2.3008-8.9922 1.5483-2.0739 3.7921-3.1113 6.7324-3.1113z" fill="url(#linearGradient1822)" stroke-width="6"/><rect transform="scale(-1)" x="-315.82" y="-312.1" width="49.353" height="49.353" fill="#302e33" stroke="#474649" stroke-width="6.73"/><rect transform="scale(-1)" x="-325.42" y="-362.84" width="37.819" height="37.819" fill="#302e33" stroke="#474649" stroke-width="5.1571"/><path d="m299.63 335.87h3.8163l-4.3578 5.6986q-0.15471 0.23207-0.33521 0.41257h21.944v2.9654h-21.969q0.077357 0.10314 0.1805 0.20629 0.077357 0.077357 0.15471 0.20629l4.3836 5.7244h-3.7389l-5.8276-7.6068z" fill="#fefaec" stroke-width="5.1571"/><path d="m269.16 326.81q0 1.858-0.68182 3.1989t-1.8693 2.0625q-1.1818 0.71591-2.6875 0.71591-1.5114 0-2.6989-0.71591-1.1818-0.72159-1.8636-2.0625t-0.68182-3.1989q0-1.8636 0.68182-3.1989 0.68182-1.3409 1.8636-2.0568 1.1875-0.72159 2.6989-0.72159 1.5057 0 2.6875 0.72159 1.1875 0.71591 1.8693 2.0568 0.68182 1.3352 0.68182 3.1989zm-1.7386 0q0-1.4205-0.46023-2.392-0.45455-0.97727-1.25-1.4773-0.78977-0.50568-1.7898-0.50568t-1.7955 0.50568q-0.78977 0.5-1.25 1.4773-0.45455 0.97159-0.45455 2.392 0 1.4148 0.45455 2.392 0.46023 0.97727 1.25 1.483 0.79545 0.5 1.7955 0.5t1.7898-0.5q0.79545-0.50568 1.25-1.483 0.46023-0.97727 0.46023-2.392z" fill="#a38e75" stroke-width="12"/><path d="m271.34 332.62v-11.636h4.1477q1.3523 0 2.2443 0.46591 0.89205 0.46591 1.3352 1.2898 0.44886 0.81818 0.44886 1.892 0 1.1705-0.53409 2.0284-0.52841 0.85227-1.6023 1.25l2.5795 4.7102h-2l-2.3636-4.4034q-0.056818 0-0.11364 0h-2.3864v4.4034zm1.7557-5.9148h2.2273q1.2841 0 1.8523-0.54545 0.57386-0.54545 0.57386-1.5284 0-0.98864-0.57386-1.5625-0.57386-0.57955-1.875-0.57955h-2.2045z" fill="#a38e75" stroke-width="12"/><path d="m508 208.77v43.637h11.846v-12.953h6.5625c3.3239 0 6.2291-0.61967 8.7148-1.8555 2.5-1.2358 4.4386-2.9963 5.8164-5.2832 1.392-2.2869 2.0898-4.9922 2.0898-8.1172 0-3.0966-0.67596-5.8038-2.0254-8.1191-1.3494-2.3153-3.239-4.1122-5.668-5.3906s-5.2614-1.918-8.5-1.918h-18.836zm39.375 0v43.637h29.488v-9.5449h-17.643v-34.092h-11.846zm47.217 0-14.404 43.637h12.783l2.5156-8.3516h14.402l2.5156 8.3516h12.783l-14.404-43.637h-16.191zm28.551 0 16.021 29.916v13.721h11.762v-13.721l16.023-29.916h-13.211l-8.5234 17.729h-0.33984l-8.5234-17.729h-13.209zm-103.3 9.4609h4.1777c2.0739 0 3.6999 0.52504 4.8789 1.5762 1.179 1.0511 1.7676 2.5156 1.7676 4.3906 0 1.8608-0.5886 3.3379-1.7676 4.4316-1.179 1.0795-2.805 1.6191-4.8789 1.6191h-4.1777v-12.018zm82.672 2.5566h0.33984l4.3477 14.404h-9.0352l4.3477-14.404z" fill="url(#linearGradient1834)" stroke-width="6"/><rect transform="scale(-1)" x="-664.37" y="-362.95" width="37.819" height="37.819" fill="#302e33" stroke="#474649" stroke-width="5.1571"/><path d="m633.34 342.09h21.892q-0.077357-0.10314-0.1805-0.1805-0.077357-0.10314-0.15471-0.23207l-4.332-5.6986h3.7905l5.8018 7.6068-5.8276 7.6068h-3.7647l4.4094-5.7244q0.077357-0.12893 0.15471-0.20629 0.077357-0.10314 0.15471-0.20629h-21.944z" fill="#fefaec" stroke-width="5.1571"/><rect transform="scale(-1)" x="-655.04" y="-312.21" width="49.353" height="49.353" fill="#302e33" stroke="#474649" stroke-width="6.73"/><path d="m607.19 326.92q0 1.858-0.68182 3.1989t-1.8693 2.0625q-1.1818 0.71591-2.6875 0.71591-1.5114 0-2.6989-0.71591-1.1818-0.72159-1.8636-2.0625-0.68182-1.3409-0.68182-3.1989 0-1.8636 0.68182-3.1989 0.68182-1.3409 1.8636-2.0568 1.1875-0.72159 2.6989-0.72159 1.5057 0 2.6875 0.72159 1.1875 0.71591 1.8693 2.0568 0.68182 1.3352 0.68182 3.1989zm-1.7386 0q0-1.4205-0.46023-2.392-0.45455-0.97727-1.25-1.4773-0.78977-0.50568-1.7898-0.50568t-1.7955 0.50568q-0.78977 0.5-1.25 1.4773-0.45455 0.97159-0.45455 2.392 0 1.4148 0.45455 2.392 0.46023 0.97727 1.25 1.483 0.79545 0.5 1.7955 0.5t1.7898-0.5q0.79545-0.50568 1.25-1.483 0.46023-0.97727 0.46023-2.392z" fill="#a38e75" stroke-width="12"/><path d="m609.37 332.74v-11.636h4.1477q1.3523 0 2.2443 0.46591 0.89205 0.46591 1.3352 1.2898 0.44886 0.81818 0.44886 1.892 0 1.1705-0.53409 2.0284-0.52841 0.85227-1.6023 1.25l2.5795 4.7102h-2l-2.3636-4.4034q-0.056818 0-0.11364 0h-2.3864v4.4034zm1.7557-5.9148h2.2273q1.2841 0 1.8523-0.54545 0.57386-0.54545 0.57386-1.5284 0-0.98864-0.57386-1.5625-0.57386-0.57955-1.875-0.57955h-2.2045z" fill="#a38e75" stroke-width="12"/><path d="m41.687 408.23v84.492h22.939v-25.084h12.707c6.4359 0 12.06-1.197 16.873-3.5898 4.8407-2.3928 8.5939-5.8024 11.262-10.23 2.6954-4.4281 4.043-9.6679 4.043-15.719 0-5.9958-1.3051-11.236-3.918-15.719s-6.2715-7.9622-10.975-10.438c-4.7031-2.4753-10.19-3.7129-16.461-3.7129h-36.471zm76.242 0v84.492h57.098v-18.482h-34.16v-66.01zm91.422 0-27.889 84.492h24.754l4.8672-16.172h27.889l4.8691 16.172h24.752l-27.889-84.492h-31.354zm55.281 0 31.025 57.924v26.568h22.773v-26.568l31.023-57.924h-25.578l-16.502 34.324h-0.66016l-16.502-34.324h-25.58zm92.248 0v84.492h60.729v-18.482h-37.789v-14.523h34.818v-18.482h-34.818v-14.521h37.955v-18.482h-60.895zm72.281 0v84.492h22.938v-27.889h7.9219l14.852 27.889h24.918l-17.162-31.52c4.4831-2.1728 7.9892-5.2947 10.52-9.3652 2.5578-4.0706 3.8379-9.0343 3.8379-14.893 0-5.9958-1.3071-11.139-3.9199-15.43s-6.2715-7.5785-10.975-9.8613c-4.7031-2.2828-10.19-3.4238-16.461-3.4238h-36.469zm117.5 0-3.1777 19.309h-10.85l-2.8047 16.502h10.973l-2.1445 12.871h-10.809l-2.8066 16.502h10.934l-3.1777 19.309h16.504l3.1758-19.309h13.201l-3.1758 19.309h16.502l3.1777-19.309h10.85l2.8047-16.502h-10.973l2.1445-12.871h10.809l2.8066-16.502h-10.934l3.1758-19.309h-16.502l-3.1758 19.309h-13.203l3.1777-19.309zm80.531 0-20.793 12.707v19.473l18.482-11.057h0.49414v63.369h22.939v-84.492h-21.123zm-562.56 18.318h8.0859c4.0155 0 7.1645 1.0175 9.4473 3.0527 2.2828 2.0353 3.4238 4.8676 3.4238 8.498 0 3.603-1.141 6.4642-3.4238 8.582-2.2828 2.0903-5.4317 3.1348-9.4473 3.1348h-8.0859v-23.268zm387.47 0h8.0859c4.0155 0 7.1645 0.82438 9.4473 2.4746 2.2828 1.6502 3.4238 4.2914 3.4238 7.9219 0 3.603-1.141 6.1881-3.4238 7.7559-2.2828 1.5402-5.4317 2.3105-9.4473 2.3105h-8.0859v-20.463zm-227.4 4.9492h0.66016l8.416 27.889h-17.494l8.418-27.889zm332.6 12.543h13.203l-2.1465 12.871h-13.201zm-88.287 72.035c-6.6834 0-12.611 1.1275-17.781 3.3828-5.1432 2.2553-9.1725 5.4042-12.088 9.4473-2.8879 4.0155-4.3166 8.7051-4.2891 14.068-0.027504 6.6009 2.1039 11.812 6.3945 15.635 4.3181 3.7955 10.216 6.5062 17.697 8.1289l8.418 1.8145c4.7031 1.0176 7.9891 2.1722 9.8594 3.4648 1.8703 1.2652 2.8182 2.8618 2.8457 4.7871-0.027504 2.0903-0.98896 3.7951-2.8867 5.1152-1.8703 1.3202-4.6485 1.9805-8.334 1.9805-4.4006 0-7.8526-1.0039-10.355-3.0117-2.4753-2.0353-3.8094-4.9931-4.002-8.8711h-21.783c0.027504 7.0685 1.5412 12.872 4.5391 17.41 3.0254 4.5106 7.2613 7.8526 12.707 10.025 5.4732 2.1728 11.881 3.2598 19.225 3.2598 10.699 0 19.088-2.228 25.166-6.6836 6.0783-4.4831 9.1307-10.891 9.1582-19.225-0.027504-6.4359-2.103-11.855-6.2285-16.256-4.1256-4.4281-10.85-7.6465-20.174-9.6543l-6.9316-1.4844c-3.988-0.85262-6.9169-1.9126-8.7871-3.1777-1.8428-1.2652-2.7096-2.9004-2.5996-4.9082 0.027504-1.8703 0.85189-3.4109 2.4746-4.6211s4.2079-1.8145 7.7559-1.8145c3.713 0 6.4777 0.77034 8.293 2.3105 1.8428 1.5402 2.8737 3.6852 3.0938 6.4355h21.949c-0.027504-5.5283-1.4041-10.355-4.127-14.48-2.6954-4.1531-6.5316-7.3715-11.51-9.6543s-10.878-3.4238-17.699-3.4238zm-282.52 1.1543 24.918 84.492h21.947l14.357-47.197h0.66016l14.357 47.197h21.947l24.92-84.492h-25.58l-11.551 52.146h-0.66016l-13.697-52.146h-20.133l-13.697 51.982h-0.66016l-11.551-51.982h-25.578zm130.53 0v84.492h22.938v-84.492zm33.828 0v84.492h22.939v-44.393h0.49414l30.529 44.393h19.143v-84.492h-22.938v44.227h-0.66016l-30.035-44.227h-19.473z" stroke="#000" stroke-width="50"/><path d="m130.74 697.6c-3.9773 0-7.571 0.85938-10.781 2.5781-3.196 1.7045-5.7397 4.2264-7.6289 7.5645-1.875 3.3239-2.8125 7.4135-2.8125 12.271 0 4.8295 0.9375 8.9139 2.8125 12.252 1.8892 3.3239 4.4329 5.853 7.6289 7.5859 3.2102 1.7187 6.804 2.5781 10.781 2.5781 2.6847 0 5.1992-0.39063 7.543-1.1719l3.2812 3.8125h10.482l-6.627-8.0098c2.017-1.9034 3.6087-4.2763 4.7734-7.1172 1.179-2.8551 1.7676-6.1655 1.7676-9.9297 0-4.8579-0.94478-8.9476-2.834-12.271-1.8892-3.3381-4.4382-5.8599-7.6484-7.5645-3.2102-1.7187-6.7894-2.5781-10.738-2.5781zm26.762 0.5957v27.955c0 3.3239 0.78125 6.1999 2.3438 8.6289 1.5767 2.4148 3.7768 4.2825 6.6035 5.6035 2.8267 1.3068 6.1225 1.9609 9.8867 1.9609 3.7358 0 7.017-0.65412 9.8438-1.9609 2.8267-1.321 5.0288-3.1887 6.6055-5.6035 1.5909-2.429 2.3867-5.305 2.3867-8.6289v-27.955h-11.848v26.932c0 2.0312-0.65945 3.7083-1.9805 5.0293-1.3068 1.3068-2.9766 1.9609-5.0078 1.9609s-3.7063-0.65412-5.0273-1.9609c-1.3068-1.321-1.9609-2.998-1.9609-5.0293v-26.932zm43.295 0v43.637h11.846v-43.637zm16.277 0v9.5469h13.125v34.09h11.676v-34.09h13.125v-9.5469zm-86.334 9.7168c2.9403 0 5.1768 1.0375 6.7109 3.1113 1.5483 2.0739 2.3223 5.0698 2.3223 8.9902 0 3.5085-0.61772 6.2866-1.8535 8.332l-2.1523-2.707h-9.2031l4.8789 6.457c-0.22727 0.014205-0.46165 0.021484-0.70312 0.021484-2.9403 0-5.1861-1.0375-6.7344-3.1113-1.5341-2.0739-2.3008-5.0717-2.3008-8.9922s0.76669-6.9164 2.3008-8.9902c1.5483-2.0739 3.794-3.1113 6.7344-3.1113zm62.729 44.373v49.354h49.354v-49.354zm-2.5488 58.08c-1.0076 0-1.9076 0.23964-2.6992 0.7207-0.78788 0.47727-1.4087 1.1647-1.8633 2.0586-0.45454 0.89015-0.68164 1.9548-0.68164 3.1973 0 1.2386 0.2271 2.3053 0.68164 3.1992s1.0754 1.5814 1.8633 2.0625c0.79167 0.47727 1.6916 0.7168 2.6992 0.7168 1.0038 0 1.8996-0.23952 2.6875-0.7168 2.6084-3.4608 3.7442-8.2036 0-10.518-0.78788-0.48106-1.6837-0.7207-2.6875-0.7207zm7.4199 11.795h8.6191zm16.264-7.6055v37.82h37.818v-37.82z" stroke="#000" stroke-width="20"/><g stroke-width="6"><path d="m41.687 408.23v84.492h22.939v-25.084h12.707c6.4359 0 12.06-1.197 16.873-3.5898 4.8407-2.3928 8.5939-5.8024 11.262-10.23 2.6954-4.4281 4.043-9.6679 4.043-15.719 0-5.9958-1.3051-11.236-3.918-15.719s-6.2715-7.9622-10.975-10.438c-4.7031-2.4753-10.19-3.7129-16.461-3.7129h-36.471zm76.242 0v84.492h57.098v-18.482h-34.16v-66.01zm91.422 0-27.889 84.492h24.754l4.8672-16.172h27.889l4.8691 16.172h24.752l-27.889-84.492h-31.354zm55.281 0 31.025 57.924v26.568h22.773v-26.568l31.023-57.924h-25.578l-16.502 34.324h-0.66016l-16.502-34.324h-25.58zm92.248 0v84.492h60.729v-18.482h-37.789v-14.523h34.818v-18.482h-34.818v-14.521h37.955v-18.482h-60.895zm72.281 0v84.492h22.938v-27.889h7.9219l14.852 27.889h24.918l-17.162-31.52c4.4831-2.1728 7.9892-5.2947 10.52-9.3652 2.5578-4.0706 3.8379-9.0343 3.8379-14.893 0-5.9958-1.3071-11.139-3.9199-15.43s-6.2715-7.5785-10.975-9.8613c-4.7031-2.2828-10.19-3.4238-16.461-3.4238h-36.469zm117.5 0-3.1777 19.309h-10.85l-2.8047 16.502h10.973l-2.1445 12.871h-10.809l-2.8066 16.502h10.934l-3.1777 19.309h16.504l3.1758-19.309h13.201l-3.1758 19.309h16.502l3.1777-19.309h10.85l2.8047-16.502h-10.973l2.1445-12.871h10.809l2.8066-16.502h-10.934l3.1758-19.309h-16.502l-3.1758 19.309h-13.203l3.1777-19.309zm80.531 0-20.793 12.707v19.473l18.482-11.057h0.49414v63.369h22.939v-84.492h-21.123zm-562.56 18.318h8.0859c4.0155 0 7.1645 1.0175 9.4473 3.0527 2.2828 2.0353 3.4238 4.8676 3.4238 8.498 0 3.603-1.141 6.4642-3.4238 8.582-2.2828 2.0903-5.4317 3.1348-9.4473 3.1348h-8.0859v-23.268zm387.47 0h8.0859c4.0155 0 7.1645 0.82438 9.4473 2.4746 2.2828 1.6502 3.4238 4.2914 3.4238 7.9219 0 3.603-1.141 6.1881-3.4238 7.7559-2.2828 1.5402-5.4317 2.3105-9.4473 2.3105h-8.0859v-20.463zm-227.4 4.9492h0.66016l8.416 27.889h-17.494l8.418-27.889zm332.6 12.543h13.203l-2.1465 12.871h-13.201z" fill="url(#linearGradient1894)"/><path d="m469.01 516.07c-6.6834 0-12.611 1.1275-17.781 3.3828-5.1432 2.2553-9.1725 5.4042-12.088 9.4473-2.8879 4.0155-4.3166 8.7051-4.2891 14.068-0.027504 6.6009 2.1039 11.812 6.3945 15.635 4.3181 3.7955 10.216 6.5062 17.697 8.1289l8.418 1.8145c4.7031 1.0176 7.9891 2.1722 9.8594 3.4648 1.8703 1.2652 2.8182 2.8618 2.8457 4.7871-0.027504 2.0903-0.98896 3.7951-2.8867 5.1152-1.8703 1.3202-4.6485 1.9805-8.334 1.9805-4.4006 0-7.8526-1.0039-10.355-3.0117-2.4753-2.0353-3.8094-4.9931-4.002-8.8711h-21.783c0.027504 7.0685 1.5412 12.872 4.5391 17.41 3.0254 4.5106 7.2613 7.8526 12.707 10.025 5.4732 2.1728 11.881 3.2598 19.225 3.2598 10.699 0 19.088-2.228 25.166-6.6836 6.0783-4.4831 9.1307-10.891 9.1582-19.225-0.027504-6.4359-2.103-11.855-6.2285-16.256-4.1256-4.4281-10.85-7.6465-20.174-9.6543l-6.9316-1.4844c-3.988-0.85262-6.9169-1.9126-8.7871-3.1777-1.8428-1.2652-2.7096-2.9004-2.5996-4.9082 0.027504-1.8703 0.85189-3.4109 2.4746-4.6211s4.2079-1.8145 7.7559-1.8145c3.713 0 6.4777 0.77034 8.293 2.3105 1.8428 1.5402 2.8737 3.6852 3.0938 6.4355h21.949c-0.027504-5.5283-1.4041-10.355-4.127-14.48-2.6954-4.1531-6.5316-7.3715-11.51-9.6543s-10.878-3.4238-17.699-3.4238zm-282.52 1.1543 24.918 84.492h21.947l14.357-47.197h0.66016l14.357 47.197h21.947l24.92-84.492h-25.58l-11.551 52.146h-0.66016l-13.697-52.146h-20.133l-13.697 51.982h-0.66016l-11.551-51.982h-25.578zm130.53 0v84.492h22.938v-84.492zm33.828 0v84.492h22.939v-44.393h0.49414l30.529 44.393h19.143v-84.492h-22.938v44.227h-0.66016l-30.035-44.227h-19.473z" fill="#fefaec"/><path d="m130.74 697.6c-3.9773 0-7.571 0.85938-10.781 2.5781-3.196 1.7045-5.7378 4.2264-7.627 7.5645-1.875 3.3239-2.8125 7.4135-2.8125 12.271 0 4.8295 0.9375 8.9139 2.8125 12.252 1.8892 3.3239 4.4309 5.853 7.627 7.5859 3.2102 1.7187 6.804 2.5781 10.781 2.5781 2.6847 0 5.1992-0.39063 7.543-1.1719l3.2812 3.8125h10.482l-6.625-8.0098c2.017-1.9034 3.6067-4.2763 4.7715-7.1172 1.179-2.8551 1.7695-6.1655 1.7695-9.9297 0-4.8579-0.94478-8.9476-2.834-12.271-1.8892-3.3381-4.4402-5.8599-7.6504-7.5645-3.2102-1.7187-6.7894-2.5781-10.738-2.5781zm26.762 0.5957v27.955c0 3.3239 0.78125 6.1999 2.3438 8.6289 1.5767 2.4148 3.7788 4.2825 6.6055 5.6035 2.8267 1.3068 6.1225 1.9609 9.8867 1.9609 3.7358 0 7.017-0.65412 9.8438-1.9609 2.8267-1.321 5.0268-3.1887 6.6035-5.6035 1.5909-2.429 2.3867-5.305 2.3867-8.6289v-27.955h-11.846v26.932c0 2.0312-0.6614 3.7083-1.9824 5.0293-1.3068 1.3068-2.9746 1.9609-5.0059 1.9609s-3.7083-0.65412-5.0293-1.9609c-1.3068-1.321-1.9609-2.998-1.9609-5.0293v-26.932h-11.846zm43.295 0v43.637h11.848v-43.637zm16.279 0v9.5469h13.125v34.09h11.676v-34.09h13.125v-9.5469zm-86.336 9.7168c2.9403 0 5.1788 1.0375 6.7129 3.1113 1.5483 2.0739 2.3223 5.0698 2.3223 8.9902 0 3.5085-0.61772 6.2866-1.8535 8.332l-2.1523-2.707h-9.2051l4.8789 6.457c-0.22727 0.014205-0.46165 0.021484-0.70312 0.021484-2.9403 0-5.1841-1.0375-6.7324-3.1113-1.5341-2.0739-2.3008-5.0717-2.3008-8.9922s0.76669-6.9164 2.3008-8.9902c1.5483-2.0739 3.7921-3.1113 6.7324-3.1113z" fill="url(#linearGradient1942)"/></g><rect transform="scale(-1)" x="-242.82" y="-801.63" width="49.353" height="49.353" fill="#302e33" stroke="#474649" stroke-width="6.73"/><rect transform="scale(-1)" x="-252.42" y="-852.37" width="37.819" height="37.819" fill="#302e33" stroke="#474649" stroke-width="5.1571"/><path d="m226.63 825.4h3.8163l-4.3578 5.6986q-0.15471 0.23207-0.33521 0.41257h21.944v2.9654h-21.969q0.077357 0.10314 0.1805 0.20629 0.077357 0.077357 0.15471 0.20629l4.3836 5.7244h-3.7389l-5.8276-7.6068z" fill="#fefaec" stroke-width="5.1571"/><path d="m196.16 816.34q0 1.858-0.68182 3.1989t-1.8693 2.0625q-1.1818 0.71591-2.6875 0.71591-1.5114 0-2.6989-0.71591-1.1818-0.72159-1.8636-2.0625-0.68182-1.3409-0.68182-3.1989 0-1.8636 0.68182-3.1989 0.68182-1.3409 1.8636-2.0568 1.1875-0.72159 2.6989-0.72159 1.5057 0 2.6875 0.72159 1.1875 0.71591 1.8693 2.0568 0.68182 1.3352 0.68182 3.1989zm-1.7386 0q0-1.4205-0.46023-2.392-0.45455-0.97727-1.25-1.4773-0.78977-0.50568-1.7898-0.50568t-1.7955 0.50568q-0.78977 0.5-1.25 1.4773-0.45455 0.97159-0.45455 2.392 0 1.4148 0.45455 2.392 0.46023 0.97727 1.25 1.483 0.79545 0.5 1.7955 0.5t1.7898-0.5q0.79545-0.50568 1.25-1.483 0.46023-0.97727 0.46023-2.392z" fill="#a38e75" stroke-width="12"/><path d="m198.34 822.16v-11.636h4.1477q1.3523 0 2.2443 0.46591 0.89205 0.46591 1.3352 1.2898 0.44886 0.81818 0.44886 1.892 0 1.1705-0.53409 2.0284-0.52841 0.85227-1.6023 1.25l2.5795 4.7102h-2l-2.3636-4.4034q-0.056818 0-0.11364 0h-2.3864v4.4034zm1.7557-5.9148h2.2273q1.2841 0 1.8523-0.54545 0.57386-0.54545 0.57386-1.5284 0-0.98864-0.57386-1.5625-0.57386-0.57955-1.875-0.57955h-2.2045z" fill="#a38e75" stroke-width="12"/><path d="m625.95 897.65c-6.5459 0-12.253 1.1565-17.121 3.4668-4.8682 2.3103-8.6368 5.6098-11.305 9.9004-2.6679 4.2906-4.002 9.4068-4.002 15.348h21.783c-0.027504-3.548 0.94942-6.2722 2.9297-8.1699 1.9803-1.9253 4.5519-2.8867 7.7148-2.8867s5.7481 0.92092 7.7559 2.7637c2.0353 1.8428 3.0527 4.3874 3.0527 7.6328 0 2.9979-0.90741 5.6101-2.7227 7.8379-1.7877 2.2003-4.2358 4.5943-7.3438 7.1797l-31.52 26.072v16.502h64.855v-18.316h-33.006v-0.49609l7.9219-6.5996c6.4359-5.3632 11.4-9.9853 14.893-13.863 3.493-3.878 5.914-7.4111 7.2617-10.602 1.3477-3.2179 2.0215-6.4499 2.0215-9.6953 0-5.2532-1.3611-9.8327-4.084-13.738-2.6954-3.9055-6.5335-6.9309-11.512-9.0762-4.9507-2.1728-10.808-3.2598-17.574-3.2598zm-595.98 1.1562v84.49h22.938v-25.082h12.707c6.4359 0 12.06-1.197 16.873-3.5898 4.8407-2.3928 8.5958-5.8024 11.264-10.23 2.6954-4.4281 4.043-9.6679 4.043-15.719 0-5.9958-1.3071-11.236-3.9199-15.719s-6.2715-7.9622-10.975-10.438c-4.7031-2.4753-10.19-3.7129-16.461-3.7129h-36.469zm76.24 0v84.49h57.098v-18.482h-34.16v-66.008zm91.422 0-27.889 84.49h24.754l4.8672-16.172h27.889l4.8691 16.172h24.752l-27.889-84.49h-31.354zm55.283 0 31.023 57.922v26.568h22.773v-26.568l31.023-57.922h-25.578l-16.502 34.324h-0.66016l-16.502-34.324h-25.578zm92.246 0v84.49h60.729v-18.482h-37.789v-14.521h34.818v-18.482h-34.818v-14.521h37.955v-18.482h-60.895zm72.281 0v84.49h22.938v-27.889h7.9219l14.852 27.889h24.918l-17.162-31.518c4.4831-2.1728 7.9892-5.2947 10.52-9.3652 2.5578-4.0706 3.8379-9.0362 3.8379-14.895 0-5.9958-1.3071-11.139-3.9199-15.43s-6.2715-7.5766-10.975-9.8594c-4.7031-2.2828-10.19-3.4238-16.461-3.4238h-36.469zm117.5 0-3.1777 19.307h-10.85l-2.8047 16.502h10.973l-2.1445 12.873h-10.809l-2.8066 16.502h10.934l-3.1758 19.307h16.502l3.1758-19.307h13.203l-3.1777 19.307h16.502l3.1777-19.307h10.85l2.8047-16.502h-10.973l2.1445-12.873h10.809l2.8066-16.502h-10.934l3.1777-19.307h-16.504l-3.1758 19.307h-13.201l3.1758-19.307zm-482.03 18.316h8.0859c4.0155 0 7.1645 1.0175 9.4473 3.0527 2.2828 2.0353 3.4238 4.8695 3.4238 8.5 0 3.603-1.141 6.4623-3.4238 8.5801-2.2828 2.0903-5.4317 3.1367-9.4473 3.1367h-8.0859v-23.27zm387.47 0h8.0859c4.0155 0 7.1645 0.82634 9.4473 2.4766 2.2828 1.6502 3.4258 4.2894 3.4258 7.9199 0 3.603-1.143 6.1881-3.4258 7.7559-2.2828 1.5402-5.4317 2.3105-9.4473 2.3105h-8.0859v-20.463zm-227.4 4.9512h0.66016l8.416 27.889h-17.492l8.416-27.889zm332.6 12.541h13.201l-2.1445 12.873h-13.203zm-76.572 72.035c-6.6834 0-12.611 1.1275-17.781 3.3828-5.1432 2.2553-9.1725 5.4062-12.088 9.4492-2.8879 4.0155-4.3166 8.7032-4.2891 14.066-0.027504 6.6009 2.1039 11.814 6.3945 15.637 4.3181 3.7955 10.216 6.5042 17.697 8.127l8.418 1.8164c4.7031 1.0176 7.9891 2.1722 9.8594 3.4648 1.8703 1.2652 2.8182 2.8599 2.8457 4.7852-0.027504 2.0903-0.98896 3.7951-2.8867 5.1152-1.8703 1.3202-4.6485 1.9805-8.334 1.9805-4.4006 0-7.8526-1.0039-10.355-3.0117-2.4753-2.0353-3.8094-4.9911-4.002-8.8691h-21.783c0.027504 7.0685 1.5412 12.872 4.5391 17.41 3.0254 4.5106 7.2613 7.8526 12.707 10.025 5.4732 2.1728 11.881 3.2578 19.225 3.2578 10.699 0 19.088-2.228 25.166-6.6836 6.0783-4.4831 9.1307-10.891 9.1582-19.225-0.027504-6.4359-2.103-11.853-6.2285-16.254-4.1256-4.4281-10.85-7.6465-20.174-9.6543l-6.9316-1.4844c-3.988-0.85262-6.9169-1.9126-8.7871-3.1777-1.8428-1.2652-2.7096-2.9024-2.5996-4.9102 0.027504-1.8703 0.85189-3.409 2.4746-4.6191s4.2079-1.8164 7.7559-1.8164c3.713 0 6.4777 0.77034 8.293 2.3105 1.8428 1.5402 2.8737 3.6852 3.0938 6.4355h21.949c-0.027504-5.5283-1.4041-10.355-4.127-14.48-2.6954-4.1531-6.5316-7.3715-11.51-9.6543-4.9782-2.2828-10.878-3.4238-17.699-3.4238zm-282.52 1.1562 24.918 84.49h21.947l14.357-47.195h0.66016l14.357 47.195h21.947l24.92-84.49h-25.58l-11.551 52.146h-0.66016l-13.697-52.146h-20.133l-13.697 51.982h-0.66016l-11.551-51.982h-25.578zm130.53 0v84.49h22.938v-84.49zm33.828 0v84.49h22.939v-44.391h0.49414l30.529 44.391h19.143v-84.49h-22.938v44.225h-0.66016l-30.035-44.225h-19.473z" stroke="#000" stroke-width="50"/><path d="m130.74 1187.6c-3.9773 0-7.571 0.85938-10.781 2.5781-3.196 1.7045-5.7397 4.2264-7.6289 7.5645-1.875 3.3239-2.8125 7.4135-2.8125 12.271 0 4.8295 0.9375 8.9139 2.8125 12.252 1.8892 3.3239 4.4329 5.853 7.6289 7.5859 3.2102 1.7187 6.804 2.5781 10.781 2.5781 2.6847 0 5.1992-0.39063 7.543-1.1719l3.2812 3.8125h10.482l-6.627-8.0098c2.017-1.9034 3.6087-4.2763 4.7734-7.1172 1.179-2.8551 1.7676-6.1655 1.7676-9.9297 0-4.8579-0.94478-8.9476-2.834-12.271-1.8892-3.3381-4.4382-5.8599-7.6484-7.5645-3.2102-1.7187-6.7894-2.5781-10.738-2.5781zm26.762 0.5957v27.955c0 3.3239 0.78125 6.1999 2.3438 8.6289 1.5767 2.4148 3.7768 4.2825 6.6035 5.6035 2.8267 1.3068 6.1225 1.9609 9.8867 1.9609 3.7358 0 7.017-0.65412 9.8438-1.9609 2.8267-1.321 5.0288-3.1887 6.6055-5.6035 1.5909-2.429 2.3867-5.305 2.3867-8.6289v-27.955h-11.848v26.932c0 2.0312-0.65945 3.7083-1.9805 5.0293-1.3068 1.3068-2.9766 1.9609-5.0078 1.9609s-3.7063-0.65412-5.0273-1.9609c-1.3068-1.321-1.9609-2.998-1.9609-5.0293v-26.932zm43.295 0v43.637h11.846v-43.637zm16.277 0v9.5469h13.125v34.09h11.676v-34.09h13.125v-9.5469zm-86.334 9.7168c2.9403 0 5.1768 1.0375 6.7109 3.1113 1.5483 2.0739 2.3223 5.0698 2.3223 8.9902 0 3.5085-0.61772 6.2866-1.8535 8.332l-2.1523-2.707h-9.2031l4.8789 6.457c-0.22727 0.014204-0.46165 0.021484-0.70312 0.021484-2.9403 0-5.1861-1.0375-6.7344-3.1113-1.5341-2.0739-2.3008-5.0717-2.3008-8.9922s0.76669-6.9164 2.3008-8.9902c1.5483-2.0739 3.794-3.1113 6.7344-3.1113zm62.729 44.373v49.354h49.354v-49.354zm-2.5488 58.08c-1.0076 0-1.9076 0.23964-2.6992 0.7207-0.78788 0.47727-1.4087 1.1647-1.8633 2.0586-0.45454 0.89015-0.68164 1.9548-0.68164 3.1973 0 1.2386 0.2271 2.3053 0.68164 3.1992s1.0754 1.5814 1.8633 2.0625c0.79167 0.47727 1.6916 0.7168 2.6992 0.7168 1.0038 0 1.8996-0.23952 2.6875-0.7168 0.79167-0.48106 1.4146-1.1686 1.8691-2.0625 0.45454-0.89394 0.68164-1.9606 0.68164-3.1992 0-1.2424-0.2271-2.3071-0.68164-3.1973-0.45454-0.89394-1.0775-1.5813-1.8691-2.0586-0.78788-0.48106-1.6837-0.7207-2.6875-0.7207zm7.4199 0.1582v11.637h1.7559v-4.4023h2.5l2.3633 4.4023h2l-2.5801-4.709c0.71591-0.26515 1.2512-0.68182 1.6035-1.25 0.35606-0.57197 0.5332-1.249 0.5332-2.0293 0-0.71591-0.14998-1.3471-0.44922-1.8926-0.29545-0.54924-0.73929-0.97846-1.334-1.2891-0.5947-0.31061-1.3426-0.4668-2.2441-0.4668zm16.264 4.0312v37.82h37.818v-37.82z" stroke="#000" stroke-width="20"/><g stroke-width="6"><path d="m625.95 897.65c-6.5459 0-12.253 1.1565-17.121 3.4668-4.8682 2.3103-8.6368 5.6098-11.305 9.9004-2.6679 4.2906-4.002 9.4068-4.002 15.348h21.783c-0.027504-3.548 0.94942-6.2722 2.9297-8.1699 1.9803-1.9253 4.5519-2.8867 7.7148-2.8867s5.7481 0.92092 7.7559 2.7637c2.0353 1.8428 3.0527 4.3874 3.0527 7.6328 0 2.9979-0.90741 5.6101-2.7227 7.8379-1.7877 2.2003-4.2358 4.5943-7.3438 7.1797l-31.52 26.072v16.502h64.855v-18.316h-33.006v-0.49609l7.9219-6.5996c6.4359-5.3632 11.4-9.9853 14.893-13.863 3.493-3.878 5.914-7.4111 7.2617-10.602 1.3477-3.2179 2.0215-6.4499 2.0215-9.6953 0-5.2532-1.3611-9.8327-4.084-13.738-2.6954-3.9055-6.5335-6.9309-11.512-9.0762-4.9507-2.1728-10.808-3.2598-17.574-3.2598zm-595.98 1.1562v84.49h22.938v-25.082h12.707c6.4359 0 12.06-1.197 16.873-3.5898 4.8407-2.3928 8.5958-5.8024 11.264-10.23 2.6954-4.4281 4.043-9.6679 4.043-15.719 0-5.9958-1.3071-11.236-3.9199-15.719s-6.2715-7.9622-10.975-10.438c-4.7031-2.4753-10.19-3.7129-16.461-3.7129h-36.469zm76.24 0v84.49h57.098v-18.482h-34.16v-66.008zm91.422 0-27.889 84.49h24.754l4.8672-16.172h27.889l4.8691 16.172h24.752l-27.889-84.49h-31.354zm55.283 0 31.023 57.922v26.568h22.773v-26.568l31.023-57.922h-25.578l-16.502 34.324h-0.66016l-16.502-34.324h-25.578zm92.246 0v84.49h60.729v-18.482h-37.789v-14.521h34.818v-18.482h-34.818v-14.521h37.955v-18.482h-60.895zm72.281 0v84.49h22.938v-27.889h7.9219l14.852 27.889h24.918l-17.162-31.518c4.4831-2.1728 7.9892-5.2947 10.52-9.3652 2.5578-4.0706 3.8379-9.0362 3.8379-14.895 0-5.9958-1.3071-11.139-3.9199-15.43s-6.2715-7.5766-10.975-9.8594c-4.7031-2.2828-10.19-3.4238-16.461-3.4238h-36.469zm117.5 0-3.1777 19.307h-10.85l-2.8047 16.502h10.973l-2.1445 12.873h-10.809l-2.8066 16.502h10.934l-3.1758 19.307h16.502l3.1758-19.307h13.203l-3.1777 19.307h16.502l3.1777-19.307h10.85l2.8047-16.502h-10.973l2.1445-12.873h10.809l2.8066-16.502h-10.934l3.1777-19.307h-16.504l-3.1758 19.307h-13.201l3.1758-19.307zm-482.03 18.316h8.0859c4.0155 0 7.1645 1.0175 9.4473 3.0527 2.2828 2.0353 3.4238 4.8695 3.4238 8.5 0 3.603-1.141 6.4623-3.4238 8.5801-2.2828 2.0903-5.4317 3.1367-9.4473 3.1367h-8.0859v-23.27zm387.47 0h8.0859c4.0155 0 7.1645 0.82634 9.4473 2.4766 2.2828 1.6502 3.4258 4.2894 3.4258 7.9199 0 3.603-1.143 6.1881-3.4258 7.7559-2.2828 1.5402-5.4317 2.3105-9.4473 2.3105h-8.0859v-20.463zm-227.4 4.9512h0.66016l8.416 27.889h-17.492l8.416-27.889zm332.6 12.541h13.201l-2.1445 12.873h-13.203z" fill="url(#linearGradient1994)"/><path d="m469.01 1006.6c-6.6834 0-12.611 1.1275-17.781 3.3828-5.1432 2.2553-9.1725 5.4062-12.088 9.4492-2.8879 4.0155-4.3166 8.7032-4.2891 14.066-0.027504 6.6009 2.1039 11.814 6.3945 15.637 4.3181 3.7955 10.216 6.5042 17.697 8.127l8.418 1.8164c4.7031 1.0176 7.9891 2.1722 9.8594 3.4648 1.8703 1.2652 2.8182 2.8599 2.8457 4.7852-0.027504 2.0903-0.98896 3.7951-2.8867 5.1152-1.8703 1.3202-4.6485 1.9805-8.334 1.9805-4.4006 0-7.8526-1.0039-10.355-3.0117-2.4753-2.0353-3.8094-4.9911-4.002-8.8691h-21.783c0.027504 7.0685 1.5412 12.872 4.5391 17.41 3.0254 4.5106 7.2613 7.8526 12.707 10.025 5.4732 2.1728 11.881 3.2578 19.225 3.2578 10.699 0 19.088-2.228 25.166-6.6836 6.0783-4.4831 9.1307-10.891 9.1582-19.225-0.027504-6.4359-2.103-11.853-6.2285-16.254-4.1256-4.4281-10.85-7.6465-20.174-9.6543l-6.9316-1.4844c-3.988-0.85262-6.9169-1.9126-8.7871-3.1777-1.8428-1.2652-2.7096-2.9024-2.5996-4.9102 0.027504-1.8703 0.85189-3.409 2.4746-4.6191s4.2079-1.8164 7.7559-1.8164c3.713 0 6.4777 0.77034 8.293 2.3105 1.8428 1.5402 2.8737 3.6852 3.0938 6.4355h21.949c-0.027504-5.5283-1.4041-10.355-4.127-14.48-2.6954-4.1531-6.5316-7.3715-11.51-9.6543-4.9782-2.2828-10.878-3.4238-17.699-3.4238zm-282.52 1.1562 24.918 84.49h21.947l14.357-47.195h0.66016l14.357 47.195h21.947l24.92-84.49h-25.58l-11.551 52.146h-0.66016l-13.697-52.146h-20.133l-13.697 51.982h-0.66016l-11.551-51.982h-25.578zm130.53 0v84.49h22.938v-84.49zm33.828 0v84.49h22.939v-44.391h0.49414l30.529 44.391h19.143v-84.49h-22.938v44.225h-0.66016l-30.035-44.225h-19.473z" fill="#fefaec"/><path d="m130.74 1187.6c-3.9773 0-7.571 0.85938-10.781 2.5781-3.196 1.7045-5.7378 4.2244-7.627 7.5625-1.875 3.3239-2.8125 7.4155-2.8125 12.273 0 4.8295 0.9375 8.9139 2.8125 12.252 1.8892 3.3239 4.4309 5.851 7.627 7.584 3.2102 1.7187 6.804 2.5781 10.781 2.5781 2.6847 0 5.1992-0.39063 7.543-1.1719l3.2812 3.8145h10.482l-6.625-8.0117c2.017-1.9034 3.6067-4.2743 4.7715-7.1152 1.179-2.8551 1.7695-6.1655 1.7695-9.9297 0-4.8579-0.94478-8.9496-2.834-12.273-1.8892-3.3381-4.4402-5.858-7.6504-7.5625-3.2102-1.7187-6.7894-2.5781-10.738-2.5781zm26.762 0.5957v27.955c0 3.3239 0.78125 6.1999 2.3438 8.6289 1.5767 2.4148 3.7788 4.2825 6.6055 5.6035 2.8267 1.3068 6.1225 1.9609 9.8867 1.9609 3.7358 0 7.017-0.65412 9.8438-1.9609 2.8267-1.321 5.0268-3.1887 6.6035-5.6035 1.5909-2.429 2.3867-5.305 2.3867-8.6289v-27.955h-11.846v26.932c0 2.0312-0.6614 3.7083-1.9824 5.0293-1.3068 1.3068-2.9746 1.959-5.0059 1.959s-3.7083-0.65217-5.0293-1.959c-1.3068-1.321-1.9609-2.998-1.9609-5.0293v-26.932h-11.846zm43.295 0v43.637h11.848v-43.637zm16.279 0v9.5449h13.125v34.092h11.676v-34.092h13.125v-9.5449zm-86.336 9.7168c2.9403 0 5.1788 1.0355 6.7129 3.1094 1.5483 2.0739 2.3223 5.0717 2.3223 8.9922 0 3.5085-0.61772 6.2846-1.8535 8.3301l-2.1523-2.7051h-9.2051l4.8789 6.4551c-0.22727 0.014205-0.46165 0.021484-0.70312 0.021484-2.9403 1e-8 -5.1841-1.0355-6.7324-3.1094-1.5341-2.0739-2.3008-5.0717-2.3008-8.9922s0.76669-6.9183 2.3008-8.9922c1.5483-2.0739 3.7921-3.1094 6.7324-3.1094z" fill="url(#linearGradient2042)"/></g><rect transform="scale(-1)" x="-242.82" y="-1291.6" width="49.353" height="49.353" fill="#302e33" stroke="#474649" stroke-width="6.73"/><rect transform="scale(-1)" x="-252.42" y="-1342.3" width="37.819" height="37.819" fill="#302e33" stroke="#474649" stroke-width="5.1571"/><path d="m226.63 1315.4h3.8163l-4.3578 5.6986q-0.15471 0.23207-0.33521 0.41257h21.944v2.9654h-21.969q0.077357 0.10314 0.1805 0.20629 0.077357 0.077357 0.15471 0.20629l4.3836 5.7244h-3.7389l-5.8276-7.6068z" fill="#fefaec" stroke-width="5.1571"/><path d="m196.16 1306.3q0 1.858-0.68182 3.1989t-1.8693 2.0625q-1.1818 0.71591-2.6875 0.71591-1.5114 0-2.6989-0.71591-1.1818-0.72159-1.8636-2.0625-0.68182-1.3409-0.68182-3.1989 0-1.8636 0.68182-3.1989 0.68182-1.3409 1.8636-2.0568 1.1875-0.72159 2.6989-0.72159 1.5057 0 2.6875 0.72159 1.1875 0.71591 1.8693 2.0568 0.68182 1.3352 0.68182 3.1989zm-1.7386 0q0-1.4205-0.46023-2.392-0.45455-0.97727-1.25-1.4773-0.78977-0.50568-1.7898-0.50568t-1.7955 0.50568q-0.78977 0.5-1.25 1.4773-0.45455 0.97159-0.45455 2.392 0 1.4148 0.45455 2.392 0.46023 0.97727 1.25 1.483 0.79545 0.5 1.7955 0.5t1.7898-0.5q0.79545-0.50568 1.25-1.483 0.46023-0.97727 0.46023-2.392z" fill="#a38e75" stroke-width="12"/><path d="m198.34 1312.1v-11.636h4.1477q1.3523 0 2.2443 0.46591 0.89205 0.46591 1.3352 1.2898 0.44886 0.81818 0.44886 1.892 0 1.1705-0.53409 2.0284-0.52841 0.85227-1.6023 1.25l2.5795 4.7102h-2l-2.3636-4.4034q-0.056818 0-0.11364 0h-2.3864v4.4034zm1.7557-5.9148h2.2273q1.2841 0 1.8523-0.54545 0.57386-0.54545 0.57386-1.5284 0-0.98864-0.57386-1.5625-0.57386-0.57955-1.875-0.57955h-2.2045z" fill="#a38e75" stroke-width="12"/><rect transform="scale(-1)" x="-754.88" y="-444.88" width="49.756" height="49.756" stroke="#000" stroke-width="30.244"/><rect transform="scale(-1)" x="-754.88" y="-444.88" width="49.756" height="49.756" fill="#302e33" stroke="#474649" stroke-width="6.7848"/><rect transform="scale(-1)" x="-817.97" y="-667.97" width="37.937" height="37.937" stroke="#000" stroke-width="20.063"/><rect transform="scale(-1)" x="-817.97" y="-667.97" width="37.937" height="37.937" fill="#302e33" stroke="#474649" stroke-width="5.1733"/><path d="m807.4 640.87v3.8282l-5.7165-4.3714q-0.2328-0.1552-0.41386-0.33626v22.012h-2.9746v-22.038q-0.10347 0.077599-0.20693 0.18106-0.077599 0.077599-0.20693 0.1552l-5.7423 4.3973v-3.7506l7.6306-5.8458z" fill="#fefaec" stroke-width="5.1733"/><rect transform="scale(-1)" x="-817.97" y="-747.97" width="37.937" height="37.937" stroke="#000" stroke-width="20.063"/><rect transform="scale(-1)" x="-817.97" y="-747.97" width="37.937" height="37.937" fill="#302e33" stroke="#474649" stroke-width="5.1733"/><path d="m801.79 715.1v21.961q0.10347-0.077599 0.18106-0.18106 0.10347-0.077599 0.2328-0.1552l5.7165-4.3456v3.8024l-7.6306 5.8199-7.6306-5.8458v-3.7765l5.7423 4.4232q0.12933 0.077599 0.20693 0.1552 0.10347 0.077599 0.20693 0.1552v-22.012z" fill="#fefaec" stroke-width="5.1733"/><rect transform="scale(-1)" x="-754.88" y="-524.88" width="49.756" height="49.756" stroke="#000" stroke-width="30.244"/><rect transform="scale(-1)" x="-754.88" y="-524.88" width="49.756" height="49.756" fill="#302e33" stroke="#474649" stroke-width="6.7848"/><circle cx="714" cy="852" r="24" stroke-width="12"/><g fill="none"><path d="m711.33 853.65a24 24 0 0 1 16.971-16.971" stroke="url(#linearGradient59420)" stroke-width="6"/><g stroke-width="2"><path d="m715.78 862.79c0.81943-0.39957 1.034-1.3647 0.63119-2.0595-0.55694-0.96074-1.9518-1.1683-2.9785-0.63962-1.391 0.71624-1.744 2.3758-1.0201 3.5622 0.96337 1.5786 3.2854 1.9077 4.984 0.99601 2.2245-1.1939 2.7752-3.877 1.565-5.7828-1.5623-2.4603-5.1833-2.8887-7.883-1.4822-2.7709 1.4436-3.4639 5.4445-1.5522 8.3612 0.13464 0.20543 0.28115 0.40419 0.43862 0.59532" stroke="#95ea1c"/><path d="m724.34 856.55c-0.30134 1.5065-0.70026 5.1786 0.81804 4.6051 1.6731-1.3772 1.9944-2.7339 2.0736-4.1915" stroke="#65d680"/><path d="m706.38 864.17c-3.4645 0.064231-2.5279 2.5566-6.4492 3.4209 5.858 3.0154 10.234 0.9318 14.026 0.93159 5.7427-3.2931e-4 16.02-2.1547 13.188-6.5928-2.2237-3.196-4.2424 3.5954-6.9343 2.5034" stroke="#32c0ea"/></g></g><circle cx="714" cy="804" r="24" stroke-width="12"/><path d="m710.52 804.9a24 24 0 0 1 16.971-16.971" fill="none" stroke="url(#linearGradient57585)" stroke-width="6"/><g stroke-width="58.81"><path class="UnoptimicedTransforms" transform="matrix(-.099482 -.022632 .022632 -.099482 861.14 831.29)" d="m1474.9-141.31c5.7041-8.3183 13.515-17.184 20.488-27.707 14.569-21.963 20.42-44.979 22.025-63.25 1.5619-17.788-0.68271-29.052-0.68271-29.052s-1.9695 11.202-8.0092 26.839c-6.3144 16.349-16.17 34.55-31.169 51.978-2.19e-6 -1.059e-6 -5.18e-6 6.02e-6 -5.18e-6 6.02e-6 -5.6128 6.5188-12.207 13.261-18.27 21.167-2.5219 3.2884-4.8554 6.6499-6.9751 10.161-4.1433 6.8739-6.9809 14.123-8.4193 21.45-1.7401 8.7572-0.90614 17.122 1.5217 24.127 3.0598 8.5941 8.3677 14.315 13.283 17.819 0 6.1e-9 4.6e-6 1.7618e-6 4.6e-6 1.7618e-6 5.788 4.1171 11.298 5.3382 14.457 5.7122 3.3528 0.39709 5.0239 0.089855 5.0239 0.089855s-1.2533-1.0467-3.4353-3.2314c-2.0626-2.0652-5.3275-5.6438-7.7809-10.408 5.1e-7 -6.701e-7 -1.51e-6 -2.9323e-6 -1.51e-6 -2.9323e-6 -1.9407-3.7545-3.6046-8.687-3.7715-14.033-0.20618-4.2699 0.61458-9.0428 2.4407-14.392 1.5287-4.4388 3.95-8.9898 7.2542-14.209 0.63632-1.0074 1.309-2.0251 2.0202-3.0623z" fill="#f36a37"/><path class="UnoptimicedTransforms" transform="matrix(-.099482 -.022632 .022632 -.099482 861.14 831.29)" d="m1550.9-147.32c-1.5289-2.1899-3.0995-4.2483-4.6718-6.2158-6.5468-8.7402-13.305-15.575-15.614-22.918-1.8296-4.8602-2.2872-10.456-1.2916-15.672 1.0692-5.6893 3.902-11.046 7.6978-15.161 1.67e-6 -1.002e-6 3.33e-6 -2.005e-6 5e-6 -3.007e-6 4.5668-4.9697 10.432-8.0726 15.916-9.547 12.048-3.2511 20.384 0.47986 20.384 0.47986s-6.2021-6.9433-21.113-7.5211c-6.8019-0.25792-15.271 1.2737-23.355 6.42 1.07e-6 2.105e-6 -7.08e-6 4.51e-6 -7.08e-6 4.51e-6 -6.7115 4.2862-12.841 10.917-16.565 19.674-3.393 8.0215-4.5543 17.35-2.6502 26.75 3.1837 13.563 10.555 24.067 17.181 32.3 0.003729 0.0049586 0.24373 0.32384 0.24746 0.3288 3.284 4.3597 5.9412 7.7792 8.0767 11.313 2.353 3.9748 4.0683 7.4138 4.8323 10.723 1.7856 6.6471 0.23501 13.966-2.4389 19.025-3.236 6.2444-8.4896 10.287-12.274 12.554-3.8072 2.2805-6.2283 3.0503-6.2283 3.0503s1.9763 1.3722 6.952 1.8843c4.4079 0.45369 13.818 0.10114 22.88-7.4738 6.9007-5.8358 14.043-16.799 13.177-31.603-0.5036-6.7936-2.4744-13.513-5.8017-19.699-1.6102-3.0401-3.4036-5.9171-5.3412-8.6925z" fill="#ef175e"/><path class="UnoptimicedTransforms" transform="matrix(.099482 .022632 .022632 -.099482 559.11 762.58)" d="m1563.1-123.46c-0.16637-0.64962-0.35059-1.2913-0.55213-1.9242-1.6876-5.3804-4.1347-10.084-6.9339-14.131-5.4227-7.9553-11.312-13.662-15.011-19.144-4.5493-6.5426-7.4974-14.371-8.4318-22.332-1.0163-8.5575 0.29858-17.238 3.3442-24.824l4.8e-6 -6.447e-6c3.6187-9.0378 9.5464-16.271 15.773-21.355 13.421-10.969 25.776-11.808 25.776-11.808s-12.057-3.2927-29.899 5.2581c-8.2487 3.9578-17.273 10.77-24.119 21.238-5.7348 8.784-9.6612 19.8-10.099 32.01-0.39322 11.302 2.2409 23.037 8.1632 33.631 4.8907 8.5614 10.572 14.92 14.129 20.584 4.5e-7 1.488e-6 2.52e-6 4.407e-6 4.6e-6 7.326e-6 0.7364 1.1993 1.4171 2.3548 2.0114 3.4699 0.83621 1.5689 1.486 3.0292 1.8938 4.4169 0.70067 2.4794 1.0794 4.6802 0.78034 6.3529-0.17519 1.5734-0.81734 3.2195-1.7013 4.5095-0.94206 1.4006-2.3539 2.626-3.8535 3.4152-1.6228 0.86964-3.5985 1.3193-5.4544 1.3059-2.0534-0.0022701-4.207-0.61127-5.9972-1.6008-2.0494-1.1201-3.8191-2.8773-5.0347-4.8024-1.4598-2.2942-2.2166-5.0032-2.3618-7.5186-0.19822-3.3051 0.64776-6.4206 1.8024-8.8306 2.8691-6.0052 6.7259-8.0103 6.7259-8.0103s-0.93783-0.13699-2.8942 0.16126c-1.8074 0.27553-5.1438 1.0928-8.6499 3.7179-2.7902 2.0933-6.0282 5.6222-7.8936 10.901-1.3947 3.9663-2.0216 8.9943-0.77331 14.475 1.0483 4.5627 3.3658 9.3219 7.3854 13.422 3.62e-6 1.3166e-6 5.26e-6 4.1741e-6 6.89e-6 7.0315e-6 3.4988 3.5537 8.1754 6.4831 13.85 7.9366 5.0713 1.2863 10.743 1.3424 16.444-0.3553 5.1829-1.5575 10.159-4.5016 14.227-8.9207 3.74-4.0838 6.5255-9.23 7.7753-15.131 1.0583-5.473 0.89946-10.967-0.41964-16.118z" fill="#fdbe11"/></g><ellipse transform="rotate(-56.6)" cx="-285.29" cy="1036.5" rx="1.73" ry="1.3868" fill="#fdbe11" stroke-width="6"/><circle cx="714" cy="1092" r="24" stroke-width="12"/><g stroke-width="2"><circle cx="700.48" cy="1091.5" r="5" fill="#32c0ea"/><circle cx="711.48" cy="1105.8" r="4" fill="#63d583"/><circle cx="717.52" cy="1089.2" r="14.001" fill="none" stroke="#fdbe11" stroke-dasharray="2, 2"/><circle cx="717.52" cy="1089.2" r="11" fill="#fdbe11"/><path d="m716.52 1094.2v-4.0089h-4.0015v-1.9896h4.0015v-4.0015h1.9896v4.0015h4.0089v1.9896h-4.0089v4.0089z" color="#000000"/><path d="m716.52 1083.2a1.0001 1.0001 0 0 0-1 1v3h-3a1.0001 1.0001 0 0 0-1 1v1.9902a1.0001 1.0001 0 0 0 1 1h3v3.0098a1.0001 1.0001 0 0 0 1 1h1.9902a1.0001 1.0001 0 0 0 1-1v-3.0098h3.0098a1.0001 1.0001 0 0 0 1-1v-1.9902a1.0001 1.0001 0 0 0-1-1h-3.0098v-3a1.0001 1.0001 0 0 0-1-1zm0.99609 5.0059a1.0001 1.0001 0 0 0 0.98828 0.98828 1.0001 1.0001 0 0 0-0.98828 0.99219 1.0001 1.0001 0 0 0-0.99219-0.99219 1.0001 1.0001 0 0 0 0.99219-0.98828z" color="#000000"/></g><circle cx="714" cy="1140" r="24" stroke-width="12"/><g stroke-width="2"><circle cx="702.3" cy="1129.4" r="5" fill="#fdbe11"/><circle cx="726.7" cy="1148.5" r="4" fill="#f77632"/><circle cx="714.36" cy="1140.6" r="14.001" fill="none" stroke="#32c0ea" stroke-dasharray="2, 2"/><path d="m718.99 1139.6v1.9157h-9.2074v-1.9157z" color="#000000" fill="#95ea1c"/><path d="m709.79 1138.7a1.171 0.85416 0 0 0-1.1709 0.85407v1.9166a1.171 0.85416 0 0 0 1.1709 0.85407h9.2071a1.171 0.85416 0 0 0 1.1709-0.85407v-1.9166a1.171 0.85416 0 0 0-1.1709-0.85407zm1.1709 1.7081h6.8653v0.20851h-6.8653z" color="#000000" fill="#95ea1c"/></g><circle cx="714" cy="1188" r="24" stroke-width="12"/><path d="m714.86 1173-22.323 17.151 17.278 19.609 20.027-20.731z" fill="url(#linearGradient71193)" stroke-dasharray="2, 2" stroke-width="2"/><g stroke-width="50.673"><path class="UnoptimicedTransforms" transform="matrix(-.080991 -.086373 .086373 -.080991 841.41 1312)" d="m1474.9-141.31c5.7041-8.3183 13.515-17.184 20.488-27.707 14.569-21.963 20.42-44.979 22.025-63.25 1.5619-17.788-0.68271-29.052-0.68271-29.052s-1.9695 11.202-8.0092 26.839c-6.3144 16.349-16.17 34.55-31.169 51.978-2.19e-6 -1.059e-6 -5.18e-6 6.02e-6 -5.18e-6 6.02e-6 -5.6128 6.5188-12.207 13.261-18.27 21.167-2.5219 3.2884-4.8554 6.6499-6.9751 10.161-4.1433 6.8739-6.9809 14.123-8.4193 21.45-1.7401 8.7572-0.90614 17.122 1.5217 24.127 3.0598 8.5941 8.3677 14.315 13.283 17.819 0 6.1e-9 4.6e-6 1.7618e-6 4.6e-6 1.7618e-6 5.788 4.1171 11.298 5.3382 14.457 5.7122 3.3528 0.39709 5.0239 0.089855 5.0239 0.089855s-1.2533-1.0467-3.4353-3.2314c-2.0626-2.0652-5.3275-5.6438-7.7809-10.408 5.1e-7 -6.701e-7 -1.51e-6 -2.9323e-6 -1.51e-6 -2.9323e-6 -1.9407-3.7545-3.6046-8.687-3.7715-14.033-0.20618-4.2699 0.61458-9.0428 2.4407-14.392 1.5287-4.4388 3.95-8.9898 7.2542-14.209 0.63632-1.0074 1.309-2.0251 2.0202-3.0623z" fill="#f36a37"/><path class="UnoptimicedTransforms" transform="matrix(-.080991 -.086373 .086373 -.080991 841.41 1312)" d="m1550.9-147.32c-1.5289-2.1899-3.0995-4.2483-4.6718-6.2158-6.5468-8.7402-13.305-15.575-15.614-22.918-1.8296-4.8602-2.2872-10.456-1.2916-15.672 1.0692-5.6893 3.902-11.046 7.6978-15.161 1.67e-6 -1.002e-6 3.33e-6 -2.005e-6 5e-6 -3.007e-6 4.5668-4.9697 10.432-8.0726 15.916-9.547 12.048-3.2511 20.384 0.47986 20.384 0.47986s-6.2021-6.9433-21.113-7.5211c-6.8019-0.25792-15.271 1.2737-23.355 6.42 1.07e-6 2.105e-6 -7.08e-6 4.51e-6 -7.08e-6 4.51e-6 -6.7115 4.2862-12.841 10.917-16.565 19.674-3.393 8.0215-4.5543 17.35-2.6502 26.75 3.1837 13.563 10.555 24.067 17.181 32.3 0.003729 0.0049586 0.24373 0.32384 0.24746 0.3288 3.284 4.3597 5.9412 7.7792 8.0767 11.313 2.353 3.9748 4.0683 7.4138 4.8323 10.723 1.7856 6.6471 0.23501 13.966-2.4389 19.025-3.236 6.2444-8.4896 10.287-12.274 12.554-3.8072 2.2805-6.2283 3.0503-6.2283 3.0503s1.9763 1.3722 6.952 1.8843c4.4079 0.45369 13.818 0.10114 22.88-7.4738 6.9007-5.8358 14.043-16.799 13.177-31.603-0.5036-6.7936-2.4744-13.513-5.8017-19.699-1.6102-3.0401-3.4036-5.9171-5.3412-8.6925z" fill="#ef175e"/><path class="UnoptimicedTransforms" transform="matrix(.080991 .086373 .086373 -.080991 595.52 1049.8)" d="m1563.1-123.46c-0.16637-0.64962-0.35059-1.2913-0.55213-1.9242-1.6876-5.3804-4.1347-10.084-6.9339-14.131-5.4227-7.9553-11.312-13.662-15.011-19.144-4.5493-6.5426-7.4974-14.371-8.4318-22.332-1.0163-8.5575 0.29858-17.238 3.3442-24.824l4.8e-6 -6.447e-6c3.6187-9.0378 9.5464-16.271 15.773-21.355 13.421-10.969 25.776-11.808 25.776-11.808s-12.057-3.2927-29.899 5.2581c-8.2487 3.9578-17.273 10.77-24.119 21.238-5.7348 8.784-9.6612 19.8-10.099 32.01-0.39322 11.302 2.2409 23.037 8.1632 33.631 4.8907 8.5614 10.572 14.92 14.129 20.584 4.5e-7 1.488e-6 2.52e-6 4.407e-6 4.6e-6 7.326e-6 0.7364 1.1993 1.4171 2.3548 2.0114 3.4699 0.83621 1.5689 1.486 3.0292 1.8938 4.4169 0.70067 2.4794 1.0794 4.6802 0.78034 6.3529-0.17519 1.5734-0.81734 3.2195-1.7013 4.5095-0.94206 1.4006-2.3539 2.626-3.8535 3.4152-1.6228 0.86964-3.5985 1.3193-5.4544 1.3059-2.0534-0.0022701-4.207-0.61127-5.9972-1.6008-2.0494-1.1201-3.8191-2.8773-5.0347-4.8024-1.4598-2.2942-2.2166-5.0032-2.3618-7.5186-0.19822-3.3051 0.64776-6.4206 1.8024-8.8306 2.8691-6.0052 6.7259-8.0103 6.7259-8.0103s-0.93783-0.13699-2.8942 0.16126c-1.8074 0.27553-5.1438 1.0928-8.6499 3.7179-2.7902 2.0933-6.0282 5.6222-7.8936 10.901-1.3947 3.9663-2.0216 8.9943-0.77331 14.475 1.0483 4.5627 3.3658 9.3219 7.3854 13.422 3.62e-6 1.3166e-6 5.26e-6 4.1741e-6 6.89e-6 7.0315e-6 3.4988 3.5537 8.1754 6.4831 13.85 7.9366 5.0713 1.2863 10.743 1.3424 16.444-0.3553 5.1829-1.5575 10.159-4.5016 14.227-8.9207 3.74-4.0838 6.5255-9.23 7.7753-15.131 1.0583-5.473 0.89946-10.967-0.41964-16.118z" fill="#fdbe11"/></g><ellipse transform="rotate(-22.575)" cx="197.44" cy="1372" rx="2.0077" ry="1.6095" fill="#fdbe11" stroke-width="6"/><circle cx="721.7" cy="1181.6" r="11" fill="#32c0ea" stroke-dasharray="2, 2" stroke-width="2"/><circle cx="714" cy="1236" r="24" stroke-width="12"/><g fill="none" stroke-width="2"><path d="m715.46 1247.3c0.81943-0.39957 1.034-1.3647 0.63119-2.0595-0.55694-0.96074-1.9518-1.1683-2.9785-0.63962-1.391 0.71624-1.744 2.3758-1.0201 3.5622 0.96337 1.5786 3.2854 1.9077 4.984 0.99601 2.2245-1.1939 2.7752-3.877 1.565-5.7828-1.5623-2.4603-5.1833-2.8887-7.883-1.4822-2.7709 1.4436-3.4639 5.4445-1.5522 8.3612 0.13464 0.20543 0.28115 0.40419 0.43862 0.59532" stroke="#95ea1c"/><path d="m724.02 1241.1c-0.30134 1.5065-0.70026 5.1786 0.81804 4.6051 1.6731-1.3772 1.9944-2.7339 2.0736-4.1915" stroke="#65d680"/><path d="m706.06 1248.7c-3.4645 0.064231-2.5279 2.5566-6.4492 3.4209 5.858 3.0154 10.234 0.9318 14.026 0.93159 5.7427-3.2931e-4 16.02-2.1547 13.188-6.5928-2.2237-3.196-4.2424 3.5954-6.9343 2.5034" stroke="#32c0ea"/></g><circle cx="718.39" cy="1228.3" r="11" fill="#fdbe11" stroke-dasharray="2, 2" stroke-width="2"/><circle cx="714" cy="900" r="24" stroke-width="12"/><path d="m723.61 911.02v-4.0089h-4.0015v-1.9896h4.0015v-4.0015h1.9896v4.0015h4.0089v1.9896h-4.0089v4.0089z" color="#000000" fill="#fdbe11" stroke-width="2"/><path d="m723.61 900.02a1.0001 1.0001 0 0 0-1 1v3.002h-3.002a1.0001 1.0001 0 0 0-1 1v1.9902a1.0001 1.0001 0 0 0 1 1h3.002v3.0078a1.0001 1.0001 0 0 0 1 1h1.9883a1.0001 1.0001 0 0 0 1-1v-3.0078h3.0098a1.0001 1.0001 0 0 0 1-1v-1.9902a1.0001 1.0001 0 0 0-1-1h-3.0098v-3.002a1.0001 1.0001 0 0 0-1-1zm0.99414 5.0078a1.0001 1.0001 0 0 0 0.98828 0.98828 1.0001 1.0001 0 0 0-0.98828 0.99023 1.0001 1.0001 0 0 0-0.98828-0.99023 1.0001 1.0001 0 0 0 0.98828-0.98828z" color="#000000" fill="#fdbe11" stroke-width="2"/><g fill="none"><g stroke-width="6"><path d="m704.69 903.39a24 24 0 0 1 14.573-11.182" stroke="url(#linearGradient72143)"/><path d="m701.48 915.39a24 24 0 0 1 2.1453-9.9183" stroke="url(#linearGradient72396)"/><path d="m721.51 891.72a24 24 0 0 1 10.179 0.48756" stroke="url(#linearGradient72396)"/></g><g stroke="#fdbe11" stroke-dasharray="2, 2" stroke-width="2"><path d="m695.82 913.83a29.704 29.704 0 0 1 2.9098-11.349"/><path d="m707.1 916.74a18.434 18.434 0 0 1 2.0714-9.944"/><path d="m721.18 897.46a18.434 18.434 0 0 1 10.423 0.54127"/><path d="m718.12 886.54a29.772 29.772 0 0 1 15.061 0.091686"/></g></g><circle cx="714" cy="948" r="24" stroke-width="12"/><g fill="none"><g stroke="#32c0ea" stroke-dasharray="2, 2" stroke-width="2"><path d="m695.81 961.87a29.704 29.704 0 0 1 4.1757-13.731"/><path d="m707.09 964.69a18.434 18.434 0 0 1 2.7068-10.993"/><path d="m721.47 945.39a18.434 18.434 0 0 1 10.49 0.73432"/><path d="m718.48 934.45a29.772 29.772 0 0 1 14.706 0.17984"/></g><path d="m704.69 951.39a24 24 0 0 1 14.573-11.182" stroke="url(#linearGradient72547)" stroke-width="6"/></g><path d="m729.27 952.97v1.9157h-9.2074v-1.9157z" color="#000000" fill="#95ea1c" stroke-width="2"/><path d="m720.07 952.12a1.171 0.85416 0 0 0-1.1709 0.85407v1.915a1.171 0.85416 0 0 0 1.1709 0.85407h9.2071a1.171 0.85416 0 0 0 1.1709-0.85407v-1.915a1.171 0.85416 0 0 0-1.1709-0.85407zm1.1709 1.7081h6.8653v0.20685h-6.8653z" color="#000000" fill="#95ea1c" stroke-width="2"/><circle cx="714" cy="996" r="24" stroke-width="12"/><g fill="none"><path d="m708.25 1002a13.515 13.515 0 0 1 0.46051-3.498" stroke="#fdbe11" stroke-width="12"/><path d="m715.04 990.36a13.445 13.445 0 0 1 3.2426-1.3431" stroke="#fdbe11" stroke-width="12"/><path d="m697.77 1002a24 24 0 0 1 17.788-23.182" stroke="url(#linearGradient83088)" stroke-width="6"/></g><g fill="#f77a34"><path d="m713.62 1009.2-1.0114 1.0227-3.5511-3.5511v8.9205h-1.4773v-8.9205l-3.5455 3.5511-1.017-1.0227 5.3011-5.3011z" color="#000000"/><path d="m702.66 1009.5 1.0176 1.0234a0.50005 0.50005 0 0 0 0.70898 0l2.6914-2.6953v7.7109a0.50005 0.50005 0 0 0 0.5 0.5h1.4766a0.50005 0.50005 0 0 0 0.5-0.5v-7.7129l2.6973 2.6973a0.50005 0.50005 0 0 0 0.70898-0.001953l1.0117-1.0234a0.50005 0.50005 0 0 0-0.0019531-0.70508l-5.3008-5.3008a0.50005 0.50005 0 0 0-0.70703 0l-5.3008 5.3008a0.50005 0.50005 0 0 0-0.0019531 0.70703zm1.0605-0.35156 4.5957-4.5957 4.5957 4.5957-0.30859 0.3125-3.1953-3.1953a0.50005 0.50005 0 0 0-0.85352 0.35352v8.4199h-0.47656v-8.4199a0.50005 0.50005 0 0 0-0.85352-0.35352l-3.1934 3.1953z" color="#000000"/><path d="m723.82 982.02 1.2496 0.71224-2.511 4.3492 8.6165-2.3088 0.38235 1.427-8.6165 2.3088 4.3477 2.5056-0.72463 1.247-6.4925-3.7484z" color="#000000"/><path d="m726.98 992.46 0.72515-1.2478a0.50005 0.50005 0 0 0-0.18299-0.68294l-3.3-1.9021 7.4501-1.9962a0.50005 0.50005 0 0 0 0.35355-0.61237l-0.38266-1.4281a0.50005 0.50005 0 0 0-0.61237-0.35355l-7.4519 1.9967 1.9091-3.304a0.50005 0.50005 0 0 0-0.18538-0.68432l-1.2504-0.71235a0.50005 0.50005 0 0 0-0.68055 0.18437l-3.7482 6.4921a0.50005 0.50005 0 0 0 0.1835 0.68482l6.4921 3.7482a0.50005 0.50005 0 0 0 0.68105-0.18249zm-0.61406-0.93337-5.6267-3.2501 3.2497-5.6286 0.38172 0.21719-2.2614 3.9139a0.50005 0.50005 0 0 0 0.56238 0.73294l8.1349-2.1797 0.12385 0.46221-8.1349 2.1797a0.50005 0.50005 0 0 0-0.11867 0.91543l3.9119 2.2538z" color="#000000"/></g><g stroke-width="12"><circle cx="714" cy="1044" r="24"/><path d="m708.25 1050a13.515 13.515 0 0 1 0.46051-3.498" fill="none" stroke="#95ea1c"/><path d="m715.04 1038.4a13.445 13.445 0 0 1 3.2426-1.3431" fill="none" stroke="#95ea1c"/></g><g fill="#32c0ea"><path d="m703.02 1058.3 1.0114-1.0227 3.5511 3.5511v-8.9205h1.4773v8.9205l3.5455-3.5511 1.017 1.0227-5.3011 5.3011z" color="#000000"/><path d="m713.97 1057.9-1.0176-1.0234a0.50005 0.50005 0 0 0-0.70898 0l-2.6914 2.6953v-7.7129a0.50005 0.50005 0 0 0-0.5-0.5h-1.4766a0.50005 0.50005 0 0 0-0.5 0.5v7.7148l-2.6973-2.6992a0.50005 0.50005 0 0 0-0.70898 0.001953l-1.0117 1.0234a0.50005 0.50005 0 0 0 0.0019531 0.70508l5.3008 5.3008a0.50005 0.50005 0 0 0 0.70703 0l5.3008-5.3008a0.50005 0.50005 0 0 0 0.0019531-0.70508zm-1.0605 0.35156-4.5957 4.5938-4.5957-4.5957 0.30859-0.3125 3.1953 3.1973a0.50005 0.50005 0 0 0 0.85352-0.35352v-8.4219h0.47656v8.4219a0.50005 0.50005 0 0 0 0.85352 0.35156l3.1914-3.1953z" color="#000000"/><path d="m727.63 1040-1.2496-0.71224 2.511-4.3492-8.6165 2.3088-0.38235-1.427 8.6165-2.3088-4.3477-2.5056 0.72463-1.247 6.4925 3.7484z" color="#000000"/><path d="m724.43 1029.5-0.72332 1.2473a0.50005 0.50005 0 0 0 0.18161 0.68533l3.3 1.9021-7.4482 1.9957a0.50005 0.50005 0 0 0-0.35355 0.61237l0.38217 1.4263a0.50005 0.50005 0 0 0 0.61237 0.35355l7.4501-1.9962-1.9073 3.3035a0.50005 0.50005 0 0 0 0.18589 0.68621l1.2499 0.71052a0.50005 0.50005 0 0 0 0.68055-0.18437l3.7482-6.4921a0.50005 0.50005 0 0 0-0.18299-0.68294l-6.4921-3.7482a0.50005 0.50005 0 0 0-0.68344 0.18111zm0.61406 0.93337 5.6286 3.2497-3.2497 5.6286-0.37984-0.2177 2.2576-3.9129a0.50005 0.50005 0 0 0-0.56238-0.73294l-8.133 2.1792-0.12334-0.46032 8.133-2.1792a0.50005 0.50005 0 0 0 0.12057-0.91593l-3.9143-2.2551z" color="#000000"/></g><path d="m697.77 1050a24 24 0 0 1 17.788-23.182" fill="none" stroke="url(#linearGradient83094)" stroke-width="6"/><rect transform="scale(-1)" x="-754.88" y="-684.88" width="49.755" height="49.755" stroke="#000" stroke-width="30.245"/><rect transform="scale(-1)" x="-754.88" y="-684.88" width="49.755" height="49.755" fill="#302e33" stroke="#474649" stroke-width="6.7848"/><path d="m741.02 649.33v5.0208l-7.4972-5.7332q-0.30532-0.20354-0.54279-0.44101v28.869h-3.9013v-28.903q-0.1357 0.10177-0.27139 0.23747-0.10177 0.10177-0.27139 0.20354l-7.5311 5.7671v-4.919l10.008-7.6668z" fill="#fefaec" stroke-width="6.7848"/><rect transform="scale(-1)" x="-754.88" y="-764.88" width="49.755" height="49.755" stroke="#000" stroke-width="30.245"/><rect transform="scale(-1)" x="-754.88" y="-764.88" width="49.755" height="49.755" fill="#302e33" stroke="#474649" stroke-width="6.7848"/><path d="m733.67 721.77v28.802q0.1357-0.10177 0.23747-0.23747 0.1357-0.10177 0.30532-0.20354l7.4972-5.6992v4.9868l-10.008 7.6329-10.008-7.6668v-4.9529l7.5311 5.801q0.16962 0.10177 0.27139 0.20354 0.1357 0.10177 0.27139 0.20354v-28.869z" fill="#fefaec" stroke-width="6.7848"/><rect transform="scale(-1)" x="-817.97" y="-427.97" width="37.937" height="37.937" stroke="#000" stroke-width="20.063"/><rect transform="scale(-1)" x="-817.97" y="-427.97" width="37.937" height="37.937" fill="#302e33" stroke="#474649" stroke-width="5.1733"/><rect transform="scale(-1)" x="-817.97" y="-507.97" width="37.937" height="37.937" stroke="#000" stroke-width="20.063"/><rect transform="scale(-1)" x="-817.97" y="-507.97" width="37.937" height="37.937" fill="#302e33" stroke="#474649" stroke-width="5.1733"/><rect transform="scale(-1)" x="-754.88" y="-604.88" width="49.756" height="49.756" stroke="#000" stroke-width="30.244"/><rect transform="scale(-1)" x="-754.88" y="-604.88" width="49.756" height="49.756" fill="#302e33" stroke="#474649" stroke-width="6.7848"/><rect transform="scale(-1)" x="-817.97" y="-587.32" width="37.937" height="37.937" stroke="#000" stroke-width="20.063"/><rect transform="scale(-1)" x="-817.97" y="-587.32" width="37.937" height="37.937" fill="#302e33" stroke="#474649" stroke-width="5.1733"/><text x="-523.868164062" y="73.9076004028" fill="#fdbe11" font-family="'JetBrains Mono'" font-size="16px" font-weight="bold" stroke-width="30" style="line-height:1.25" xml:space="preserve"><tspan x="-523.868164062" y="73.9076004028">836x360, gradient 593.485x71.468 length 915.527</tspan></text><text x="-529.651916504" y="473.211975098" fill="#fdbe11" font-family="'JetBrains Mono'" font-size="16px" font-weight="bold" stroke-width="30" style="line-height:1.25" xml:space="preserve"><tspan x="-529.651916504" y="473.211975098">690x490, gradient 586.200x66.391 length 1000.977</tspan></text><g fill="#fefaec"><path d="m720.38 407.8h3.6601l1.3895 16.877q0.06778 0.61002 0.06778 1.4234 0 0.81336 0.03389 1.5589 0 0.88113 0 1.7962h0.44057q0.03389-0.91502 0.06778-1.7962 0.03389-0.74558 0.06778-1.5589 0.06778-0.81336 0.13556-1.4234l2.0334-16.877h3.5245l1.9317 16.877q0.06778 0.61002 0.13556 1.4234 0.06778 0.81336 0.10167 1.5589 0.06778 0.88113 0.10167 1.7962h0.47446q0-0.91502 0.03389-1.7962 0-0.74558 0-1.5589 0.03389-0.81336 0.10167-1.4234l1.3217-16.877h3.6262l-2.474 24.401h-4.914l-1.7962-16.843q-0.06778-0.77947-0.10167-1.6267-0.03389-0.88113-0.03389-1.6267 0-0.84725 0-1.6945h-0.50835q0 0.84725 0 1.6945-0.03389 0.74558-0.06778 1.6267-0.03389 0.84725-0.13556 1.6267l-1.9656 16.843h-4.8462z" stroke-width="66.666"/><path d="m791.63 399.66h2.803l1.0641 12.925q0.051908 0.46717 0.051908 1.0901 0 0.6229 0.025954 1.1939 0 0.6748 0 1.3756h0.3374q0.025954-0.70076 0.051908-1.3756 0.025954-0.57099 0.051908-1.1939 0.051908-0.6229 0.10382-1.0901l1.5572-12.925h2.6992l1.4794 12.925q0.051908 0.46717 0.10382 1.0901 0.051908 0.6229 0.077862 1.1939 0.051908 0.6748 0.077862 1.3756h0.36336q0-0.70076 0.025954-1.3756 0-0.57099 0-1.1939 0.025954-0.6229 0.077862-1.0901l1.0122-12.925h2.7771l-1.8946 18.687h-3.7633l-1.3756-12.899q-0.051908-0.59694-0.077862-1.2458-0.025954-0.6748-0.025954-1.2458 0-0.64885 0-1.2977h-0.38931q0 0.64885 0 1.2977-0.025954 0.57099-0.051908 1.2458-0.025954 0.64885-0.10382 1.2458l-1.5053 12.899h-3.7114z" stroke-width="51.055"/><path d="m721.7 505.75h4.3379q0.06778 1.4573 1.1523 2.3045 1.0845 0.81336 2.9145 0.81336 1.8978 0 2.9145-0.84725t1.0167-2.2706q0-1.2539-0.77947-2.1689-0.77947-0.94891-2.1351-1.3217l-2.6773-0.77947q-3.1179-0.84725-4.7107-2.6773-1.5589-1.83-1.5589-4.5751 0-1.525 0.54224-2.779 0.57613-1.2539 1.5928-2.1351 1.0167-0.88113 2.474-1.3556 1.4573-0.50835 3.2873-0.50835 3.4906 0 5.5918 1.7962t2.2706 4.8801h-4.304q-0.06778-1.3895-1.0506-2.1689-0.9828-0.77947-2.6095-0.77947t-2.6095 0.81336q-0.94891 0.77947-0.94891 2.1351 0 1.1184 0.71169 1.9317 0.71169 0.81336 2.2028 1.2539l2.8467 0.81336q2.9823 0.84725 4.5412 2.7451 1.5928 1.8639 1.5928 4.6768 0 1.5928-0.61002 2.8806-0.57613 1.2878-1.6606 2.2028-1.0845 0.91502-2.6095 1.4234-1.525 0.50835-3.4229 0.50835-1.83 0-3.3551-0.47446-1.4912-0.50835-2.5756-1.3895-1.0845-0.88113-1.6945-2.1351t-0.6778-2.8129z" stroke-width="66.666"/><path d="m792.64 493.4h3.3221q0.051908 1.116 0.88244 1.7649 0.83053 0.6229 2.232 0.6229 1.4534 0 2.232-0.64885 0.77862-0.64885 0.77862-1.7389 0-0.9603-0.59694-1.6611-0.59694-0.72671-1.6351-1.0122l-2.0504-0.59694q-2.3878-0.64885-3.6076-2.0504-1.1939-1.4015-1.1939-3.5038 0-1.1679 0.41526-2.1282 0.44122-0.9603 1.2198-1.6351 0.77862-0.6748 1.8946-1.0382 1.116-0.38931 2.5175-0.38931 2.6733 0 4.2824 1.3756t1.7389 3.7374h-3.2962q-0.051908-1.0641-0.80457-1.6611-0.75267-0.59694-1.9985-0.59694t-1.9985 0.6229q-0.72671 0.59694-0.72671 1.6351 0 0.85648 0.54503 1.4794 0.54503 0.6229 1.687 0.9603l2.1801 0.6229q2.284 0.64885 3.4778 2.1023 1.2198 1.4275 1.2198 3.5817 0 1.2198-0.46717 2.2061-0.44122 0.98625-1.2717 1.687-0.83053 0.70076-1.9985 1.0901t-2.6214 0.38931q-1.4015 0-2.5694-0.36336-1.142-0.38931-1.9725-1.0641-0.83053-0.6748-1.2977-1.6351t-0.51908-2.1542z" stroke-width="51.055"/></g></g></svg>
